#N struct m1 float x float y float q;
#N canvas 0 38 1728 1051 12;
#N canvas 245 38 1483 1051 visualizer 0;
#N canvas 63 101 1665 768 graphic 0;
#X scalar m1 0.01 0.09 0 \;;
#X scalar m1 0.01 -0.82 0 \;;
#X coords 0 -1 1 1 900 220 2 100 100;
#X restore 100 162 pd graphic;
#X obj 101 642 cnv 19 900 200 empty empty Set\ up\ routine 20 12 0 12 #c6ffc7 #404040 0;
#X obj 107 785 struct m1 float x float y float q;
#X obj 373 668 bng 19 250 50 0 empty empty empty 0 -10 0 12 #fcfcfc #000000 #000000;
#X obj 373 692 t b b b;
#X msg 465 785 \; pd-graphic clear;
#X obj 396 769 pointer;
#X obj 359 800 append m1 x y;
#X msg 396 745 traverse pd-graphic \, bang;
#X obj 696 773 pointer;
#X msg 693 656 traverse pd-graphic;
#X msg 716 732 next;
#X floatatom 1053 675 5 0 0 0 - - - 0;
#X obj 697 815 set m1 x;
#X obj 800 775 pointer;
#X obj 801 817 set m1 x;
#X obj 693 680 t b b a b a;
#X msg 801 738 next;
#X obj 1050 651 r marker;
#X obj 374 646 loadbang;
#X text 349 643 1);
#X text 618 670 2);
#X obj 590 648 del 100;
#X obj 108 812 drawcurve 51 2 0 0.74 0 0;
#X msg 370 718 0.01 0.09 \, 0.01 -0.82;
#X obj 448 649 r set_up_r;
#X obj 1084 143 r velocity;
#X obj 100 162 visualizer;
#X obj 940 162 cnv 12 12 200 empty empty empty 20 12 0 12 #000000 #404040 0;
#X obj 942 164 cnv 8 8 196 empty empty empty 20 12 0 12 #00ff04 #9c00ff 0;
#X obj 942 164 cnv 8 8 61 empty velocity_bar empty 20 12 0 12 #c6ffc7 #404040 0;
#X msg 1118 324 \; velocity_bar vis_size 8 \$1;
#X obj 1086 167 / 127;
#X obj 1086 191 t f f;
#X obj 1087 242 -;
#X msg 1087 217 1;
#X obj 1087 266 * 196;
#X connect 3 0 4 0;
#X connect 3 0 22 0;
#X connect 4 0 24 0;
#X connect 4 1 8 0;
#X connect 4 2 5 0;
#X connect 6 0 7 2;
#X connect 8 0 6 0;
#X connect 9 0 13 1;
#X connect 10 0 16 0;
#X connect 11 0 9 0;
#X connect 12 0 13 0;
#X connect 12 0 15 0;
#X connect 14 0 15 1;
#X connect 16 0 11 0;
#X connect 16 1 11 0;
#X connect 16 2 9 0;
#X connect 16 3 17 0;
#X connect 16 4 14 0;
#X connect 17 0 14 0;
#X connect 18 0 12 0;
#X connect 19 0 3 0;
#X connect 22 0 10 0;
#X connect 24 0 7 0;
#X connect 25 0 3 0;
#X connect 26 0 32 0;
#X connect 32 0 33 0;
#X connect 33 0 35 0;
#X connect 33 1 34 1;
#X connect 34 0 36 0;
#X connect 35 0 34 0;
#X connect 36 0 31 0;
#X coords 0 -1 1 1 900 300 2 100 100;
#X restore 100 100 pd visualizer;
#X obj 101 1119 hsl 400 19 0 800 0 0 empty empty empty -2 -10 0 12 #fcfcfc #000000 #000000 0 1;
#X obj 98 1214 pack f f;
#X obj 98 1238 s marker;
#X obj 98 1143 t f b;
#X floatatom 226 1196 5 0 0 0 - - - 0;
#X obj 226 1172 / 800;
#X obj 226 1219 *;
#X obj 268 1195 r filesize;
#X floatatom 226 1243 10 0 0 0 - - - 0;
#X obj 226 1266 s start_pos;
#X obj 197 1335 hsl 400 19 0 1 0 0 empty empty empty -2 -10 0 12 #fcfcfc #000000 #000000 0 1;
#X obj 194 1358 *;
#X obj 224 1359 r sf;
#X floatatom 194 1382 10 0 0 0 - - - 0;
#X obj 194 1405 s grainsize;
#X obj 103 623 env~;
#X floatatom 101 647 5 0 0 0 - - - 0;
#X msg 158 1167 0;
#X obj 98 1097 * 800;
#X obj 98 1167 / 900;
#X obj 98 1191 + 0.01;
#X obj 888 1323 vsl 19 162 0 127 0 0 empty empty empty 0 -9 0 12 #fcfcfc #000000 #000000 0 1;
#X obj 438 619 env~;
#X floatatom 437 643 5 0 0 0 - - - 0;
#N canvas 221 38 1506 1051 sub_grain 0;
#X obj 187 18 inlet;
#X obj 230 766 outlet~;
#X obj 367 767 outlet~;
#X msg 186 41 1;
#X obj 266 406 clone sub_sub_grain 4;
#X obj 248 262 skip_number;
#X text 335 263 voice managment;
#X obj 297 99 tgl 19 0 empty empty empty 0 -10 0 12 #fcfcfc #000000 #000000 0 1;
#X obj 306 57 r hold;
#X listbox 500 294 20 0 0 0 - - - 0;
#X obj 515 403 bng 19 250 50 0 empty empty empty 0 -10 0 12 #fcfcfc #000000 #000000;
#X msg 497 266 0 pitch 0;
#X floatatom 516 427 5 0 0 0 - - - 0;
#X obj 508 369 route pitch;
#X floatatom 203 290 5 0 0 0 - - - 0;
#X connect 0 0 3 0;
#X connect 3 0 5 0;
#X connect 4 0 1 0;
#X connect 4 1 2 0;
#X connect 5 0 14 0;
#X connect 5 0 4 0;
#X connect 7 0 5 1;
#X connect 8 0 7 0;
#X connect 9 0 13 0;
#X connect 11 0 9 0;
#X connect 13 0 10 0;
#X connect 13 0 12 0;
#X restore 101 575 pd sub_grain;
#X obj 101 520 bng 50 250 50 0 empty empty Pluck 0 -10 0 12 #00ff04 #000000 #000000;
#X obj 1017 125 s rand_size;
#X obj 1017 147 s rand_pos;
#X obj 334 68 s velocity;
#X obj 86 1279 r velocity;
#X obj 86 1303 / 127;
#X obj 86 1327 / 1;
#X obj 87 1352 + 0.02;
#X obj 154 142 nbx 2 15 1 20 0 0 \$0-samplescroll empty sample -50 7 0 13 #fcfcfc #000000 #000000 0 256;
#X obj 830 115 hsl 162 19 0 0.1 0 0 empty empty random\ grain\ size 15 10 0 12 #c6ffc7 #ffffff #000000 0 1;
#X obj 830 138 hsl 162 19 0 0.1 0 0 empty empty random\ grain\ position 15 10 0 12 #c6ffc7 #ffffff #000000 0 1;
#N canvas 0 38 1728 1051 esp32s3_out 0;
#X obj 93 72 inlet;
#X obj 167 73 inlet;
#X obj 360 951 outlet;
#X obj 565 949 outlet;
#X obj 930 945 outlet;
#X obj 101 114 talk_to_esp, f 13;
#X floatatom 101 191 5 0 0 0 - - - 0;
#X floatatom 132 213 5 0 0 0 - - - 0;
#X floatatom 159 236 5 0 0 0 - - - 0;
#X floatatom 187 259 5 0 0 0 - - - 0;
#X text 437 605 20-910;
#X obj 363 802 max 20;
#X obj 363 826 - 20;
#X obj 363 778 min 900;
#X obj 363 850 / 880;
#X text 403 924 0-1;
#X floatatom 398 532 5 0 0 0 - - - 0;
#X text 438 537 0-1;
#X obj 398 462 min 62754;
#X obj 398 486 max 0;
#X obj 398 510 / 62754;
#X text 470 461 0-62754;
#X floatatom 398 602 5 0 0 0 - - - 0;
#X obj 363 896 line;
#X floatatom 363 920 5 0 0 0 - - - 0;
#X floatatom 558 457 5 0 0 0 - - - 0;
#X obj 558 480 > 0.5;
#X floatatom 558 504 5 0 0 0 - - - 0;
#X obj 558 527 t f f;
#X obj 562 586 -;
#X floatatom 562 610 5 0 0 0 - - - 0;
#X obj 562 633 abs;
#X obj 562 657 route 1;
#X obj 562 681 bng 19 250 50 0 empty empty empty 0 -10 0 12 #fcfcfc #000000 #000000;
#X floatatom 928 593 5 0 127 0 - - - 0;
#X obj 684 456 t f f;
#X obj 689 490 -;
#X obj 689 514 abs;
#X obj 928 473 line;
#X obj 928 520 * 127;
#X obj 928 543 int;
#X obj 928 496 / 0.1;
#X obj 928 567 clip 0 127;
#X msg 363 872 \$1 100;
#X msg 928 449 \$1 20;
#X text 401 441 FADER;
#X text 361 755 DISTANCE;
#X text 555 437 find side;
#X text 558 566 find crossing of middle;
#X text 584 681 if crossed \, then pluck;
#X text 681 419 calculate difference between two consecutive values;
#X text 926 430 scale \, lowpass and clamp to 0-127;
#X msg 398 554 \$1 10;
#X obj 398 578 line 0 40;
#X text 408 950 distance 0-1;
#X text 616 951 pluck bang;
#X text 981 949 velocity 0-127;
#X obj 1190 942 outlet;
#X floatatom 1164 587 5 0 0 0 - - - 0;
#X obj 1164 539 - 19000;
#X obj 1164 563 / 25000;
#X obj 1164 610 clip 0 1;
#X floatatom 1164 634 5 0 0 0 - - - 0;
#X obj 1378 929 outlet;
#X text 1241 945 pitchbend;
#X text 1431 930 capa touch?;
#X obj 1343 555 > 65000;
#X obj 1343 579 tgl 19 0 empty empty empty 0 -10 0 12 #fcfcfc #000000 #000000 0 1;
#X obj 1355 659 sel;
#X obj 1358 761 +;
#X obj 1355 619 t f f f;
#X msg 1352 690 0;
#X floatatom 1358 785 5 0 0 0 - - - 0;
#X obj 1404 788 bng 19 250 50 0 empty empty empty 0 -10 0 12 #fcfcfc #000000 #000000;
#X obj 1169 664 - 1;
#X obj 1169 688 abs;
#X floatatom 1169 712 5 0 0 0 - - - 0;
#X obj 1229 323 / 127;
#X obj 1168 740 - 0.5;
#X obj 1181 894 + 0.5;
#X floatatom 1181 918 5 0 0 0 - - - 0;
#X obj 1168 764 * 1;
#X floatatom 1251 352 5 0 0 0 - - - 0;
#X obj 1229 299 r fader_pitch_range;
#X connect 0 0 5 0;
#X connect 1 0 5 1;
#X connect 5 0 6 0;
#X connect 5 1 7 0;
#X connect 5 2 8 0;
#X connect 5 3 9 0;
#X connect 6 0 13 0;
#X connect 7 0 18 0;
#X connect 8 0 59 0;
#X connect 9 0 66 0;
#X connect 11 0 12 0;
#X connect 12 0 14 0;
#X connect 13 0 11 0;
#X connect 14 0 43 0;
#X connect 16 0 52 0;
#X connect 18 0 19 0;
#X connect 19 0 20 0;
#X connect 20 0 16 0;
#X connect 22 0 25 0;
#X connect 22 0 35 0;
#X connect 23 0 24 0;
#X connect 24 0 2 0;
#X connect 25 0 26 0;
#X connect 26 0 27 0;
#X connect 27 0 28 0;
#X connect 28 0 29 1;
#X connect 28 1 29 0;
#X connect 29 0 30 0;
#X connect 30 0 31 0;
#X connect 31 0 32 0;
#X connect 32 0 33 0;
#X connect 33 0 3 0;
#X connect 34 0 4 0;
#X connect 35 0 36 1;
#X connect 35 1 36 0;
#X connect 36 0 37 0;
#X connect 37 0 44 0;
#X connect 38 0 41 0;
#X connect 39 0 40 0;
#X connect 40 0 42 0;
#X connect 41 0 39 0;
#X connect 42 0 34 0;
#X connect 43 0 23 0;
#X connect 44 0 38 0;
#X connect 52 0 53 0;
#X connect 53 0 22 0;
#X connect 58 0 61 0;
#X connect 59 0 60 0;
#X connect 60 0 58 0;
#X connect 61 0 62 0;
#X connect 62 0 74 0;
#X connect 66 0 67 0;
#X connect 67 0 70 0;
#X connect 68 1 71 0;
#X connect 69 0 72 0;
#X connect 70 0 68 1;
#X connect 70 1 68 0;
#X connect 70 2 69 1;
#X connect 71 0 69 0;
#X connect 72 0 63 0;
#X connect 72 0 73 0;
#X connect 74 0 75 0;
#X connect 75 0 76 0;
#X connect 76 0 78 0;
#X connect 77 0 81 1;
#X connect 77 0 82 0;
#X connect 78 0 81 0;
#X connect 79 0 80 0;
#X connect 80 0 57 0;
#X connect 81 0 79 0;
#X connect 83 0 77 0;
#X restore 293 43 pd esp32s3_out;
#X msg 294 16 open 1;
#X msg 374 16 close;
#X obj 162 117 tgl 19 0 empty empty Connect\ esp 20 10 0 12 #c6ffc7 #000000 #000000 0 1;
#X obj 238 18 sel 1;
#X obj 238 42 bng 19 250 50 0 empty empty empty 0 -10 0 12 #fcfcfc #000000 #000000;
#X obj 269 41 bng 19 250 50 0 empty empty empty 0 -10 0 12 #fcfcfc #000000 #000000;
#X floatatom 900 382 5 0 0 1 R\ out~ - - 0;
#X obj 929 362 bng 19 250 50 0 empty empty empty 0 -10 0 12 #fcfcfc #00ff04 #000000;
#X obj 111 117 tgl 19 0 empty empty DSP\  20 10 0 12 #c6ffc7 #000000 #000000 0 1;
#X msg 527 19 \; pd dsp \$1;
#X obj 401 115 cnv 19 300 32 empty empty Granular\ Đàn\ bầu\  5 16 0 30 #c6ffc7 #606060 0;
#X floatatom 800 382 5 0 0 1 L\ out~ - - 0;
#X obj 414 70 s pitchbend;
#X obj 103 382 hsl 162 18 0 1 0 0 empty empty pitchbend 20 10 0 12 #c6ffc7 #ffffff #000000 0 1;
#X obj 14 415 r pitchbend;
#X obj 39 569 cnv 19 60 30 empty empty -> 20 12 0 30 #00ff04 #404040 0;
#X obj 382 382 hsl 162 18 0 0.1 0 0 empty empty stereo\ diff 15 10 0 12 #c6ffc7 #ffffff #000000 0 1;
#X obj -3 462 s stereo_diff;
#N canvas 864 38 864 1051 midi_out 0;
#X obj 165 743 outlet;
#X obj 370 741 outlet;
#X obj 735 737 outlet;
#X text 208 716 0-1;
#X floatatom 167 626 5 0 0 0 - - - 0;
#X text 213 742 distance 0-1;
#X text 421 743 pluck bang;
#X text 786 741 velocity 0-127;
#X obj 995 734 outlet;
#X floatatom 213 331 5 0 0 0 lower_limit - - 0;
#X obj 121 22 notein;
#X floatatom 346 330 5 0 0 0 upper_limit - - 0;
#X obj 211 399 -;
#X obj 935 363 bendin;
#X text 1043 738 0 - 1;
#X floatatom 211 423 5 0 0 0 - - - 0;
#X obj 209 513 /;
#X floatatom 209 537 5 0 0 0 - - - 0;
#X obj 174 463 -;
#X obj 211 446 abs;
#X obj 167 649 t b f;
#X obj 935 410 / 16384;
#X text 988 360 0 - 16384;
#X obj 142 719 spigot;
#X obj 358 709 spigot;
#X obj 733 712 spigot;
#X obj 993 707 spigot;
#X obj 773 85 inlet;
#X text 818 73 turn on midi 0 - 1;
#X obj 285 97 inlet;
#X obj 389 98 inlet;
#X obj 157 153 moses 1;
#X obj 120 155 +;
#X msg 172 176 0;
#X floatatom 89 180 5 0 0 0 - - - 0;
#X floatatom 131 182 5 0 0 0 - - - 0;
#X obj 74 104 spigot;
#X obj 139 127 t f f;
#X msg 198 208 1;
#X msg 157 211 0;
#X obj 346 353 t b f;
#X connect 4 0 20 0;
#X connect 9 0 12 0;
#X connect 9 0 18 1;
#X connect 10 0 36 0;
#X connect 10 1 37 0;
#X connect 11 0 40 0;
#X connect 12 0 15 0;
#X connect 13 0 21 0;
#X connect 15 0 19 0;
#X connect 16 0 17 0;
#X connect 17 0 4 0;
#X connect 18 0 16 0;
#X connect 19 0 16 1;
#X connect 20 0 24 0;
#X connect 20 1 23 0;
#X connect 21 0 26 0;
#X connect 23 0 0 0;
#X connect 24 0 1 0;
#X connect 25 0 2 0;
#X connect 26 0 8 0;
#X connect 27 0 26 1;
#X connect 27 0 25 1;
#X connect 27 0 24 1;
#X connect 27 0 23 1;
#X connect 29 0 9 0;
#X connect 30 0 11 0;
#X connect 31 0 39 0;
#X connect 31 1 33 0;
#X connect 31 1 38 0;
#X connect 32 0 35 0;
#X connect 33 0 32 0;
#X connect 34 0 18 0;
#X connect 35 0 25 0;
#X connect 36 0 34 0;
#X connect 37 0 31 0;
#X connect 37 1 32 1;
#X connect 38 0 36 1;
#X connect 39 0 36 1;
#X connect 40 0 12 0;
#X connect 40 1 12 1;
#X restore 670 23 pd midi_out;
#X obj 704 69 s velocity;
#X obj 807 70 s pitchbend;
#X obj 867 589 loadbang;
#X obj 867 613 bng 19 250 50 0 empty empty empty 0 -10 0 12 #fcfcfc #000000 #000000;
#X obj 867 637 t b b;
#X msg 901 664 96;
#X msg 867 664 23;
#X floatatom 838 429 5 0 0 1 lower_limit - - 0;
#X floatatom 838 452 5 0 0 1 upper_limit - - 0;
#X obj 838 405 tgl 19 0 empty empty midi\ on 24 10 0 12 #c6ffc7 #000000 #000000 0 1;
#X obj 838 475 bng 19 250 50 0 empty empty set\ as\ default 24 10 0 12 #c6ffc7 #000000 #000000;
#X obj 819 544 +;
#X obj 785 542 +;
#X msg 784 519 0;
#X msg 819 520 0;
#X msg 786 583 set \$1;
#X msg 804 610 set \$1;
#X obj 893 548 pack f f;
#X listbox 916 405 10 0 0 0 - - - 0;
#X obj 892 523 notein;
#X obj 101 600 *~ 1;
#X obj 434 594 *~ 1;
#X obj 98 912 outlet~;
#X obj 444 914 outlet~;
#X obj 791 749 s pd;
#X floatatom 793 404 5 0 0 0 midi_device_in - - 0;
#X msg 791 725 midi-dialog \$1 0 0 0 0 0 0 0 0 0 0 0 0 0 0 0 0 0 2 2;
#N canvas 63 101 781 300 super_looper 0;
#X obj 65 168 looper;
#X obj 126 170 looper;
#X floatatom 123 122 5 0 0 0 - - - 0;
#X obj 81 108 bng 19 250 50 0 empty empty empty 0 -10 0 12 #fcfcfc #000000 #000000;
#X floatatom 178 139 5 0 0 0 - - - 0;
#X obj 21 31 inlet~;
#X obj 99 36 inlet~;
#X obj 49 244 outlet~;
#X obj 144 254 outlet~;
#X obj 371 34 inlet;
#X obj 572 43 inlet;
#X obj 194 39 inlet;
#X text 17 12 audio l;
#X text 94 15 audio r;
#X text 191 14 bang to start recording;
#X text 371 15 delay time;
#X text 571 16 grain size;
#X obj 287 247 outlet;
#X obj 352 250 outlet;
#X connect 0 0 7 0;
#X connect 0 1 17 0;
#X connect 1 0 8 0;
#X connect 1 1 18 0;
#X connect 2 0 0 2;
#X connect 2 0 1 2;
#X connect 3 0 0 1;
#X connect 3 0 1 1;
#X connect 4 0 0 3;
#X connect 4 0 1 3;
#X connect 5 0 0 0;
#X connect 6 0 1 0;
#X connect 9 0 2 0;
#X connect 10 0 4 0;
#X connect 11 0 3 0;
#X restore 218 691 pd super_looper;
#X obj 109 408 bng 30 250 50 0 empty empty loop 0 15 0 12 #00ff04 #000000 #000000;
#X obj 111 441 hsl 162 19 0 1000 0 0 empty empty delay\ time\  10 10 0 12 #c6ffc7 #ffffff #000000 0 1;
#X obj 111 464 hsl 162 19 200 20000 0 0 empty empty grain\ size\ loop 10 10 0 12 #c6ffc7 #ffffff #000000 0 1;
#X obj 146 417 hsl 128 19 0 1 0 0 empty empty volume\ loop 10 10 0 12 #c6ffc7 #ffffff #000000 0 1;
#X obj 528 713 *~;
#X obj 218 712 *~;
#X obj 217 809 rev2~ 100 90 3000 20;
#X obj 499 804 rev2~ 100 90 3000 20;
#X obj 280 419 vsl 19 63 0 99 0 0 empty empty rev 0 10 0 12 #c6ffc7 #ffffff #000000 0 1;
#X obj 303 419 vsl 19 63 0 1 0 0 empty empty d/w 0 10 0 12 #c6ffc7 #ffffff #000000 0 1;
#X obj 554 774 *~;
#X obj 232 770 *~;
#X obj 159 810 - 1;
#X obj 159 834 * -1;
#X obj 166 887 *~;
#X obj 494 887 *~;
#X obj 326 420 vsl 19 63 0 1 0 0 empty empty d/w 0 10 0 12 #c6ffc7 #ffffff #000000 0 1;
#X obj 60 790 - 1;
#X obj 60 814 * -1;
#X obj 67 867 *~;
#X obj 403 788 - 1;
#X obj 403 812 * -1;
#X obj 410 865 *~;
#X obj 504 775 *~;
#X obj 190 773 *~;
#X obj 222 925 env~;
#X floatatom 222 949 5 0 0 0 - - - 0;
#X obj 497 551 loadbang;
#X msg 497 575 0;
#X obj 23 311 loadbang;
#X obj 380 510 s hold;
#X obj 379 418 tgl 50 0 empty empty hold 5 20 0 12 #00ff04 #000000 #000000 0 1;
#X obj 506 73 s capa_touch;
#X obj 476 512 r capa_touch;
#X obj 58 20 s num_sample;
#X obj 1175 188 loader;
#X obj 266 117 bng 19 250 50 0 empty empty load\ all 20 10 0 12 #c6ffc7 #ffffff #000000;
#X obj 1267 327 r num_sample;
#X obj 1308 455 array size;
#X floatatom 1308 479 10 0 0 0 - - - 0;
#X msg 1335 386 symbol array\$1l;
#X obj 1308 502 s filesize;
#X obj 1279 527 tabread sampling_rates;
#X floatatom 1279 551 5 0 0 0 - - - 0;
#X obj 1267 351 t f b f;
#X obj 1279 574 s sf;
#X obj 1327 601 s set_up_r;
#X msg 1327 577 bang;
#X obj 191 145 cnv 12 204 12 empty empty empty 20 12 0 12 #000000 #404040 0;
#X obj 193 147 cnv 8 200 8 empty empty empty 20 12 0 12 #c6ffc7 #9c00ff 0;
#X obj 1123 262 * 2;
#X msg 1121 286 \; loading_bar vis_size \$1 8;
#X obj 1178 239 loadbang;
#X msg 1178 263 0;
#X obj 193 147 cnv 8 187 8 empty loading_bar empty 20 12 0 12 #00ff04 #404040 0;
#X obj -141 210 r fader_volume_loop;
#X obj -141 234 / 127;
#X obj -141 284 / 127;
#X obj -141 260 r fader_grain_size;
#X obj -141 308 * 19800;
#X obj -141 332 + 200;
#X obj -141 384 / 127;
#X obj -141 360 r fader_rev;
#X obj -141 408 * 99;
#X obj -141 454 / 127;
#X obj -141 430 r fader_dw_loop;
#X obj -141 504 / 127;
#X obj -141 480 r fader_dw_direct;
#X obj -141 530 r fader_stereo_diff;
#X obj -141 554 / 1270;
#X obj 1126 5 r fader_random_grain_size;
#X obj 1126 75 r fader_random_grain_position;
#X obj 1126 29 / 1270;
#X obj 1126 99 / 1270;
#N canvas 864 38 864 1051 sample_pick_keyboard 0;
#X obj 167 880 outlet;
#X obj 139 36 notein;
#X floatatom 139 60 5 0 0 0 - - - 0;
#X obj 140 105 route 48;
#X obj 139 83 pack f f;
#X obj 140 129 moses 1;
#X obj 203 129 moses 1;
#X obj 157 269 +;
#X floatatom 157 293 5 0 0 0 - - - 0;
#X msg 182 178 -1;
#X msg 245 178 1;
#X floatatom 157 340 5 0 0 0 - - - 0;
#X obj 203 105 route 52;
#X obj 296 887 outlet;
#X obj 273 134 moses 1;
#X obj 273 110 route 55;
#X msg 315 183 bang;
#X obj 157 316 clip 1 16;
#X connect 1 0 2 0;
#X connect 1 1 4 1;
#X connect 2 0 4 0;
#X connect 3 0 5 0;
#X connect 3 1 12 0;
#X connect 4 0 3 0;
#X connect 5 1 9 0;
#X connect 6 1 10 0;
#X connect 7 0 8 0;
#X connect 8 0 17 0;
#X connect 9 0 7 0;
#X connect 10 0 7 0;
#X connect 11 0 0 0;
#X connect 12 0 6 0;
#X connect 12 1 15 0;
#X connect 14 1 16 0;
#X connect 15 0 14 0;
#X connect 16 0 13 0;
#X connect 17 0 7 1;
#X connect 17 0 11 0;
#X restore -84 93 pd sample_pick_keyboard;
#X obj 282 753 env~;
#X floatatom 229 401 5 0 0 0 - - - 0;
#X obj 282 729 +~;
#X msg 52 334 0;
#X msg 23 335 1500;
#X floatatom 337 690 5 0 0 1 subpatch\ number - - 0;
#X floatatom 338 715 5 0 0 1 subpatch\ number - - 0;
#X obj 148 406 bng 10 250 50 0 empty empty empty\ array 15 4 0 8 #ff0400 #000000 #000000;
#X msg 645 615 0;
#X obj 658 681 +;
#X obj 658 715 +;
#X floatatom 693 702 5 0 0 0 - - - 0;
#X floatatom 690 744 5 0 0 0 - - - 0;
#X msg 679 783 \; \$1-array const 0;
#X msg 652 824 \; \$1-array const 0;
#X obj -15 368 * 10;
#X connect 1 0 4 0;
#X connect 1 0 6 0;
#X connect 2 0 3 0;
#X connect 4 0 20 0;
#X connect 4 1 18 0;
#X connect 5 0 7 0;
#X connect 6 0 5 0;
#X connect 7 0 9 0;
#X connect 8 0 7 1;
#X connect 9 0 10 0;
#X connect 11 0 12 0;
#X connect 12 0 14 0;
#X connect 13 0 12 1;
#X connect 14 0 15 0;
#X connect 16 0 17 0;
#X connect 17 0 49 0;
#X connect 18 0 2 1;
#X connect 19 0 1 0;
#X connect 20 0 21 0;
#X connect 21 0 2 0;
#X connect 23 0 24 0;
#X connect 24 0 44 0;
#X connect 25 0 77 0;
#X connect 25 1 78 0;
#X connect 26 0 45 0;
#X connect 26 0 25 0;
#X connect 30 0 31 0;
#X connect 31 0 32 0;
#X connect 32 0 33 0;
#X connect 33 0 11 0;
#X connect 34 0 119 0;
#X connect 35 0 27 0;
#X connect 36 0 28 0;
#X connect 37 0 19 0;
#X connect 37 1 26 0;
#X connect 37 2 29 0;
#X connect 37 3 50 0;
#X connect 37 4 117 0;
#X connect 38 0 37 0;
#X connect 39 0 37 1;
#X connect 40 0 41 0;
#X connect 41 0 42 0;
#X connect 41 1 43 0;
#X connect 42 0 38 0;
#X connect 43 0 39 0;
#X connect 46 0 47 0;
#X connect 52 0 51 0;
#X connect 54 0 55 0;
#X connect 56 0 19 0;
#X connect 56 1 26 0;
#X connect 56 2 57 0;
#X connect 56 3 58 0;
#X connect 59 0 60 0;
#X connect 60 0 61 0;
#X connect 61 0 63 0;
#X connect 61 1 62 0;
#X connect 62 0 65 0;
#X connect 63 0 64 0;
#X connect 64 0 56 0;
#X connect 64 0 69 1;
#X connect 65 0 56 1;
#X connect 65 0 68 1;
#X connect 66 0 56 2;
#X connect 67 0 71 0;
#X connect 67 0 70 0;
#X connect 68 0 73 0;
#X connect 69 0 72 0;
#X connect 70 0 69 0;
#X connect 71 0 68 0;
#X connect 72 0 63 0;
#X connect 73 0 62 0;
#X connect 74 0 75 0;
#X connect 76 0 74 0;
#X connect 76 1 74 1;
#X connect 77 0 16 0;
#X connect 77 0 84 0;
#X connect 77 0 104 0;
#X connect 77 0 109 0;
#X connect 78 0 23 0;
#X connect 78 0 84 1;
#X connect 78 0 107 0;
#X connect 78 0 108 0;
#X connect 82 0 83 0;
#X connect 83 0 81 0;
#X connect 84 0 90 0;
#X connect 84 0 162 0;
#X connect 84 1 89 0;
#X connect 84 1 162 1;
#X connect 84 2 165 0;
#X connect 84 3 166 0;
#X connect 85 0 84 2;
#X connect 86 0 84 3;
#X connect 87 0 84 4;
#X connect 88 0 89 1;
#X connect 88 0 90 1;
#X connect 89 0 100 0;
#X connect 89 0 95 0;
#X connect 90 0 99 0;
#X connect 90 0 96 0;
#X connect 91 0 79 0;
#X connect 91 0 110 0;
#X connect 92 0 80 0;
#X connect 93 0 91 2;
#X connect 93 0 92 2;
#X connect 94 0 95 1;
#X connect 94 0 96 1;
#X connect 94 0 97 0;
#X connect 95 0 92 0;
#X connect 96 0 91 0;
#X connect 97 0 98 0;
#X connect 98 0 99 1;
#X connect 98 0 100 1;
#X connect 99 0 79 0;
#X connect 100 0 80 0;
#X connect 101 0 102 0;
#X connect 101 0 105 0;
#X connect 101 0 108 1;
#X connect 101 0 109 1;
#X connect 102 0 103 0;
#X connect 103 0 104 1;
#X connect 104 0 79 0;
#X connect 105 0 106 0;
#X connect 106 0 107 1;
#X connect 107 0 80 0;
#X connect 108 0 92 0;
#X connect 109 0 91 0;
#X connect 110 0 111 0;
#X connect 112 0 113 0;
#X connect 113 0 101 0;
#X connect 113 0 94 0;
#X connect 113 0 93 0;
#X connect 114 0 164 0;
#X connect 114 0 163 0;
#X connect 116 0 115 0;
#X connect 118 0 116 0;
#X connect 120 0 135 0;
#X connect 121 0 120 0;
#X connect 122 0 129 0;
#X connect 123 0 124 0;
#X connect 124 0 126 0;
#X connect 125 0 123 1;
#X connect 127 0 128 0;
#X connect 128 0 130 0;
#X connect 128 0 132 0;
#X connect 129 0 127 0;
#X connect 129 1 123 0;
#X connect 129 2 125 0;
#X connect 132 0 131 0;
#X connect 135 0 136 0;
#X connect 137 0 138 0;
#X connect 138 0 136 0;
#X connect 140 0 141 0;
#X connect 141 0 88 0;
#X connect 142 0 144 0;
#X connect 143 0 142 0;
#X connect 144 0 145 0;
#X connect 145 0 87 0;
#X connect 146 0 148 0;
#X connect 147 0 146 0;
#X connect 148 0 93 0;
#X connect 149 0 94 0;
#X connect 150 0 149 0;
#X connect 151 0 101 0;
#X connect 152 0 151 0;
#X connect 153 0 154 0;
#X connect 154 0 54 0;
#X connect 155 0 157 0;
#X connect 156 0 158 0;
#X connect 157 0 35 0;
#X connect 158 0 36 0;
#X connect 159 0 34 0;
#X connect 159 1 85 0;
#X connect 160 0 161 0;
#X connect 162 0 160 0;
#X connect 163 0 88 0;
#X connect 164 0 86 0;
#X connect 164 0 175 0;
#X connect 165 0 169 1;
#X connect 166 0 170 1;
#X connect 167 0 168 0;
#X connect 168 0 169 0;
#X connect 168 0 170 0;
#X connect 169 0 173 0;
#X connect 169 0 171 0;
#X connect 170 0 174 0;
#X connect 170 0 172 0;
#X connect 175 0 87 0;
#X coords 0 -1 1 1 900 400 1 100 100;
