#N canvas 153 38 1575 1051 12;
#X obj 699 1145 s pd-keyboard.pd;
#X text 699 1187 8 send 9 receive 10 label 11 xpos text 12 ypos text;
#X text 700 1209 13 ?? 14 text size 15 cnv color hex 16 text color;
#X floatatom 700 626 5 0 0 0 - - - 0;
#X msg 699 559 1;
#X obj 700 592 + 0;
#X msg 728 589 0;
#X obj 700 673 t b f;
#X listbox 591 1093 20 0 0 0 - - - 0;
#X obj 698 781 % 12;
#X obj 848 777 % 12;
#X obj 660 923 +;
#X obj 659 877 * 0;
#X obj 726 923 +;
#X floatatom 496 934 5 0 0 0 - - - 0;
#X msg 495 885 1;
#X obj 496 910 + 0;
#X obj 593 744 t f f f f b, f 71;
#X obj 726 875 * 0;
#X floatatom 660 947 5 0 0 0 - - - 0;
#X floatatom 726 947 5 0 0 0 - - - 0;
#X obj 660 970 * 30;
#X obj 727 970 * 30;
#X obj 809 873 * 0;
#X obj 876 871 * 0;
#X obj 700 649 moses 88;
#X msg 948 915 20;
#X msg 999 954 32;
#X obj 692 708 - 1;
#X obj 594 893 + 24;
#X obj 627 816 route 0 2 4 5 7 9 11;
#X obj 789 815 route 0 2 4 5 7 9 11;
#X text 699 1170 1 obj 2 xpos 3 ypos 4 cnv 5 cnv square size 6 xlen 7 ylen, f 58;
#X obj 151 674 % 12;
#X obj 249 760 * 0;
#X obj 150 701 route 0 2 4 5 7 9 11;
#X obj 150 605 unpack f f;
#X obj 182 762 * 0;
#X obj 182 786 + 20;
#X obj 254 790 + 32;
#X obj 178 814 +;
#X obj 252 818 +;
#X obj 70 665 t f f;
#X msg 699 1122 obj \$2 \$3 cnv 20 20 80 \$1 \$1 0 10 29 900 0 \$4 \$4 \$4, f 76;
#X obj 588 1024 makefilename note%d;
#X obj 135 882 makefilename note%d;
#X obj 132 917 pack s f;
#X obj 591 1063 pack s f f f f, f 75;
#X msg 133 946 \; \$1 color \$2 \$2 \$2;
#X floatatom 286 868 5 0 0 0 - - - 0;
#X obj 145 539 inlet;
#X msg 809 943 200;
#X msg 885 945 120;
#X obj 660 994 + 100;
#X obj 727 994 + 85;
#X obj 130 200 cnv 20 20 80 note24 note24 0 10 29 0 4 #bcbcbc #bcbcbc 0;
#X obj 145 120 cnv 20 20 80 note25 note25 0 10 29 0 4 #404040 #404040 0;
#X obj 160 200 cnv 20 20 80 note26 note26 0 10 29 0 4 #bcbcbc #bcbcbc 0;
#X obj 175 120 cnv 20 20 80 note27 note27 0 10 29 0 4 #404040 #404040 0;
#X obj 190 200 cnv 20 20 80 note28 note28 0 10 29 0 4 #bcbcbc #bcbcbc 0;
#X obj 220 200 cnv 20 20 80 note29 note29 0 10 29 0 4 #bcbcbc #bcbcbc 0;
#X obj 235 120 cnv 20 20 80 note30 note30 0 10 29 0 4 #404040 #404040 0;
#X obj 250 200 cnv 20 20 80 note31 note31 0 10 29 0 4 #bcbcbc #bcbcbc 0;
#X obj 265 120 cnv 20 20 80 note32 note32 0 10 29 0 4 #404040 #404040 0;
#X obj 280 200 cnv 20 20 80 note33 note33 0 10 29 0 4 #bcbcbc #bcbcbc 0;
#X obj 295 120 cnv 20 20 80 note34 note34 0 10 29 0 4 #404040 #404040 0;
#X obj 310 200 cnv 20 20 80 note35 note35 0 10 29 0 4 #bcbcbc #bcbcbc 0;
#X obj 340 200 cnv 20 20 80 note36 note36 0 10 29 0 4 #bcbcbc #bcbcbc 0;
#X obj 355 120 cnv 20 20 80 note37 note37 0 10 29 0 4 #404040 #404040 0;
#X obj 370 200 cnv 20 20 80 note38 note38 0 10 29 0 4 #bcbcbc #bcbcbc 0;
#X obj 385 120 cnv 20 20 80 note39 note39 0 10 29 0 4 #404040 #404040 0;
#X obj 400 200 cnv 20 20 80 note40 note40 0 10 29 0 4 #bcbcbc #bcbcbc 0;
#X obj 430 200 cnv 20 20 80 note41 note41 0 10 29 0 4 #bcbcbc #bcbcbc 0;
#X obj 445 120 cnv 20 20 80 note42 note42 0 10 29 0 4 #404040 #404040 0;
#X obj 460 200 cnv 20 20 80 note43 note43 0 10 29 0 4 #bcbcbc #bcbcbc 0;
#X obj 475 120 cnv 20 20 80 note44 note44 0 10 29 0 4 #404040 #404040 0;
#X obj 490 200 cnv 20 20 80 note45 note45 0 10 29 0 4 #bcbcbc #bcbcbc 0;
#X obj 505 120 cnv 20 20 80 note46 note46 0 10 29 0 4 #404040 #404040 0;
#X obj 520 200 cnv 20 20 80 note47 note47 0 10 29 0 4 #bcbcbc #bcbcbc 0;
#X obj 550 200 cnv 20 20 80 note48 note48 0 10 29 0 4 #bcbcbc #bcbcbc 0;
#X obj 565 120 cnv 20 20 80 note49 note49 0 10 29 0 4 #404040 #404040 0;
#X obj 580 200 cnv 20 20 80 note50 note50 0 10 29 0 4 #bcbcbc #bcbcbc 0;
#X obj 595 120 cnv 20 20 80 note51 note51 0 10 29 0 4 #404040 #404040 0;
#X obj 610 200 cnv 20 20 80 note52 note52 0 10 29 0 4 #bcbcbc #bcbcbc 0;
#X obj 640 200 cnv 20 20 80 note53 note53 0 10 29 0 4 #bcbcbc #bcbcbc 0;
#X obj 655 120 cnv 20 20 80 note54 note54 0 10 29 0 4 #404040 #404040 0;
#X obj 670 200 cnv 20 20 80 note55 note55 0 10 29 0 4 #bcbcbc #bcbcbc 0;
#X obj 685 120 cnv 20 20 80 note56 note56 0 10 29 0 4 #404040 #404040 0;
#X obj 700 200 cnv 20 20 80 note57 note57 0 10 29 0 4 #bcbcbc #bcbcbc 0;
#X obj 715 120 cnv 20 20 80 note58 note58 0 10 29 0 4 #404040 #404040 0;
#X obj 730 200 cnv 20 20 80 note59 note59 0 10 29 0 4 #bcbcbc #bcbcbc 0;
#X obj 760 200 cnv 20 20 80 note60 note60 0 10 29 0 4 #bcbcbc #bcbcbc 0;
#X obj 775 120 cnv 20 20 80 note61 note61 0 10 29 0 4 #404040 #404040 0;
#X obj 790 200 cnv 20 20 80 note62 note62 0 10 29 0 4 #bcbcbc #bcbcbc 0;
#X obj 805 120 cnv 20 20 80 note63 note63 0 10 29 0 4 #404040 #404040 0;
#X obj 820 200 cnv 20 20 80 note64 note64 0 10 29 0 4 #bcbcbc #bcbcbc 0;
#X obj 850 200 cnv 20 20 80 note65 note65 0 10 29 0 4 #bcbcbc #bcbcbc 0;
#X obj 865 120 cnv 20 20 80 note66 note66 0 10 29 0 4 #404040 #404040 0;
#X obj 880 200 cnv 20 20 80 note67 note67 0 10 29 0 4 #bcbcbc #bcbcbc 0;
#X obj 895 120 cnv 20 20 80 note68 note68 0 10 29 0 4 #404040 #404040 0;
#X obj 910 200 cnv 20 20 80 note69 note69 0 10 29 0 4 #bcbcbc #bcbcbc 0;
#X obj 925 120 cnv 20 20 80 note70 note70 0 10 29 0 4 #404040 #404040 0;
#X obj 940 200 cnv 20 20 80 note71 note71 0 10 29 0 4 #bcbcbc #bcbcbc 0;
#X obj 970 200 cnv 20 20 80 note72 note72 0 10 29 0 4 #bcbcbc #bcbcbc 0;
#X obj 985 120 cnv 20 20 80 note73 note73 0 10 29 0 4 #404040 #404040 0;
#X obj 1000 200 cnv 20 20 80 note74 note74 0 10 29 0 4 #bcbcbc #bcbcbc 0;
#X obj 1015 120 cnv 20 20 80 note75 note75 0 10 29 0 4 #404040 #404040 0;
#X obj 1030 200 cnv 20 20 80 note76 note76 0 10 29 0 4 #bcbcbc #bcbcbc 0;
#X obj 1060 200 cnv 20 20 80 note77 note77 0 10 29 0 4 #bcbcbc #bcbcbc 0;
#X obj 1075 120 cnv 20 20 80 note78 note78 0 10 29 0 4 #404040 #404040 0;
#X obj 1090 200 cnv 20 20 80 note79 note79 0 10 29 0 4 #bcbcbc #bcbcbc 0;
#X obj 1105 120 cnv 20 20 80 note80 note80 0 10 29 0 4 #404040 #404040 0;
#X obj 1120 200 cnv 20 20 80 note81 note81 0 10 29 0 4 #bcbcbc #bcbcbc 0;
#X obj 1135 120 cnv 20 20 80 note82 note82 0 10 29 0 4 #404040 #404040 0;
#X obj 1150 200 cnv 20 20 80 note83 note83 0 10 29 0 4 #bcbcbc #bcbcbc 0;
#X obj 1180 200 cnv 20 20 80 note84 note84 0 10 29 0 4 #bcbcbc #bcbcbc 0;
#X obj 1195 120 cnv 20 20 80 note85 note85 0 10 29 0 4 #404040 #404040 0;
#X obj 1210 200 cnv 20 20 80 note86 note86 0 10 29 0 4 #bcbcbc #bcbcbc 0;
#X obj 1225 120 cnv 20 20 80 note87 note87 0 10 29 0 4 #404040 #404040 0;
#X obj 1240 200 cnv 20 20 80 note88 note88 0 10 29 0 4 #bcbcbc #bcbcbc 0;
#X obj 1270 200 cnv 20 20 80 note89 note89 0 10 29 0 4 #bcbcbc #bcbcbc 0;
#X obj 1285 120 cnv 20 20 80 note90 note90 0 10 29 0 4 #404040 #404040 0;
#X obj 1300 200 cnv 20 20 80 note91 note91 0 10 29 0 4 #bcbcbc #bcbcbc 0;
#X obj 1315 120 cnv 20 20 80 note92 note92 0 10 29 0 4 #404040 #404040 0;
#X obj 1330 200 cnv 20 20 80 note93 note93 0 10 29 0 4 #bcbcbc #bcbcbc 0;
#X obj 1345 120 cnv 20 20 80 note94 note94 0 10 29 0 4 #404040 #404040 0;
#X obj 1360 200 cnv 20 20 80 note95 note95 0 10 29 0 4 #bcbcbc #bcbcbc 0;
#X obj 1390 200 cnv 20 20 80 note96 note96 0 10 29 0 4 #bcbcbc #bcbcbc 0;
#X obj 1405 120 cnv 20 20 80 note97 note97 0 10 29 0 4 #404040 #404040 0;
#X obj 1420 200 cnv 20 20 80 note98 note98 0 10 29 0 4 #bcbcbc #bcbcbc 0;
#X obj 1435 120 cnv 20 20 80 note99 note99 0 10 29 0 4 #404040 #404040 0;
#X obj 1450 200 cnv 20 20 80 note100 note100 0 10 29 0 4 #bcbcbc #bcbcbc 0;
#X obj 1480 200 cnv 20 20 80 note101 note101 0 10 29 0 4 #bcbcbc #bcbcbc 0;
#X obj 1495 120 cnv 20 20 80 note102 note102 0 10 29 0 4 #404040 #404040 0;
#X obj 1510 200 cnv 20 20 80 note103 note103 0 10 29 0 4 #bcbcbc #bcbcbc 0;
#X obj 1525 120 cnv 20 20 80 note104 note104 0 10 29 0 4 #404040 #404040 0;
#X obj 1540 200 cnv 20 20 80 note105 note105 0 10 29 0 4 #bcbcbc #bcbcbc 0;
#X obj 1555 120 cnv 20 20 80 note106 note106 0 10 29 0 4 #404040 #404040 0;
#X obj 1570 200 cnv 20 20 80 note107 note107 0 10 29 0 4 #bcbcbc #bcbcbc 0;
#X obj 1600 200 cnv 20 20 80 note108 note108 0 10 29 0 4 #bcbcbc #bcbcbc 0;
#X obj 1615 120 cnv 20 20 80 note109 note109 0 10 29 0 4 #404040 #404040 0;
#X obj 1630 200 cnv 20 20 80 note110 note110 0 10 29 0 4 #bcbcbc #bcbcbc 0;
#X connect 3 0 25 0;
#X connect 4 0 5 0;
#X connect 5 0 3 0;
#X connect 6 0 5 1;
#X connect 6 0 16 1;
#X connect 7 0 4 0;
#X connect 7 1 5 1;
#X connect 7 1 28 0;
#X connect 8 0 43 0;
#X connect 9 0 30 0;
#X connect 10 0 31 0;
#X connect 11 0 16 1;
#X connect 11 0 19 0;
#X connect 12 0 11 0;
#X connect 13 0 20 0;
#X connect 14 0 11 1;
#X connect 14 0 13 1;
#X connect 15 0 16 0;
#X connect 16 0 14 0;
#X connect 17 0 29 0;
#X connect 17 1 9 0;
#X connect 17 2 10 0;
#X connect 17 4 15 0;
#X connect 18 0 13 0;
#X connect 19 0 21 0;
#X connect 20 0 22 0;
#X connect 21 0 53 0;
#X connect 22 0 54 0;
#X connect 23 0 51 0;
#X connect 23 0 26 0;
#X connect 24 0 52 0;
#X connect 24 0 27 0;
#X connect 25 0 7 0;
#X connect 26 0 47 3;
#X connect 27 0 47 3;
#X connect 28 0 17 0;
#X connect 29 0 44 0;
#X connect 30 0 12 0;
#X connect 30 1 12 0;
#X connect 30 2 12 0;
#X connect 30 3 12 0;
#X connect 30 4 12 0;
#X connect 30 5 12 0;
#X connect 30 6 12 0;
#X connect 30 7 18 0;
#X connect 31 0 23 0;
#X connect 31 1 23 0;
#X connect 31 2 23 0;
#X connect 31 3 23 0;
#X connect 31 4 23 0;
#X connect 31 5 23 0;
#X connect 31 6 23 0;
#X connect 31 7 24 0;
#X connect 33 0 35 0;
#X connect 34 0 39 0;
#X connect 35 0 37 0;
#X connect 35 1 37 0;
#X connect 35 2 37 0;
#X connect 35 3 37 0;
#X connect 35 4 37 0;
#X connect 35 5 37 0;
#X connect 35 6 37 0;
#X connect 35 7 34 0;
#X connect 36 0 42 0;
#X connect 36 1 40 1;
#X connect 36 1 41 1;
#X connect 37 0 38 0;
#X connect 38 0 40 0;
#X connect 39 0 41 0;
#X connect 40 0 46 1;
#X connect 41 0 46 1;
#X connect 41 0 49 0;
#X connect 42 0 45 0;
#X connect 42 1 33 0;
#X connect 43 0 0 0;
#X connect 44 0 47 0;
#X connect 45 0 46 0;
#X connect 46 0 48 0;
#X connect 47 0 8 0;
#X connect 50 0 36 0;
#X connect 51 0 47 2;
#X connect 52 0 47 2;
#X connect 53 0 47 1;
#X connect 54 0 47 1;
#X coords 0 -1 1 1 1600 200 1 100 100;
