#N canvas 561 362 1167 713 12;
#N canvas 0 22 450 278 (subpatch) 0;
#X array array1l 1.68545e+07 float 2;
#X coords 0 278 1.68545e+07 277 200 140 0;
#X restore 100 20 graph;
#N canvas 0 22 450 278 (subpatch) 0;
#X array array2l 2.15748e+07 float 2;
#X coords 0 278 2.15748e+07 277 200 140 0;
#X restore 100 41 graph;
#N canvas 0 22 450 278 (subpatch) 0;
#X array array3l 1.02312e+07 float 2;
#X coords 0 278 1.02312e+07 277 200 140 0;
#X restore 100 62 graph;
#N canvas 0 22 450 278 (subpatch) 0;
#X array array4l 1.06932e+07 float 2;
#X coords 0 278 1.06932e+07 277 200 140 0;
#X restore 100 83 graph;
#N canvas 0 22 450 278 (subpatch) 0;
#X array array5l 1.21126e+07 float 2;
#X coords 0 278 1.21126e+07 277 200 140 0;
#X restore 100 104 graph;
#N canvas 0 22 450 278 (subpatch) 0;
#X array array6l 1.95869e+06 float 2;
#X coords 0 278 1.95869e+06 277 200 140 0;
#X restore 100 125 graph;
#N canvas 0 22 450 278 (subpatch) 0;
#X array array7l 196608 float 2;
#X coords 0 278 196608 277 200 140 0;
#X restore 100 146 graph;
#N canvas 0 22 450 278 (subpatch) 0;
#X array array8l 2.54482e+06 float 2;
#X coords 0 278 2.54482e+06 277 200 140 0;
#X restore 100 167 graph;
#N canvas 0 22 450 278 (subpatch) 0;
#X array array9l 7.51456e+06 float 2;
#X coords 0 278 7.51456e+06 277 200 140 0;
#X restore 150 20 graph;
#N canvas 0 22 450 278 (subpatch) 0;
#X array array10l 1.22806e+07 float 2;
#X coords 0 278 1.22806e+07 277 200 140 0;
#X restore 150 41 graph;
#N canvas 0 22 450 278 (subpatch) 0;
#X array array11l 705600 float 2;
#X coords 0 278 705600 277 200 140 0;
#X restore 150 62 graph;
#N canvas 0 22 450 278 (subpatch) 0;
#X array array12l 2.04859e+06 float 2;
#X coords 0 278 2.04859e+06 277 200 140 0;
#X restore 150 83 graph;
#N canvas 0 22 450 278 (subpatch) 0;
#X array array13l 100 float 2;
#X coords 0 278 1 277 200 140 0;
#X restore 150 104 graph;
#N canvas 0 22 450 278 (subpatch) 0;
#X array array14l 100 float 2;
#X coords 0 278 1 277 200 140 0;
#X restore 150 125 graph;
#N canvas 0 22 450 278 (subpatch) 0;
#X array array15l 100 float 2;
#X coords 0 278 1 277 200 140 0;
#X restore 150 146 graph;
#N canvas 0 22 450 278 (subpatch) 0;
#X array array16l 100 float 2;
#X coords 0 278 1 277 200 140 0;
#X restore 150 167 graph;
#X floatatom 130 433 5 0 0 1 statusbar - - 0;
#X obj 384 358 soundfiler;
#N canvas 1078 255 450 278 (subpatch) 0;
#X array array1r 1.68545e+07 float 2;
#X coords 0 278 1.68545e+07 277 200 140 0;
#X restore 200 20 graph;
#N canvas 0 22 450 278 (subpatch) 0;
#X array array2r 2.15748e+07 float 2;
#X coords 0 278 2.15748e+07 277 200 140 0;
#X restore 200 41 graph;
#N canvas 0 22 450 278 (subpatch) 0;
#X array array3r 1.02312e+07 float 2;
#X coords 0 278 1.02312e+07 277 200 140 0;
#X restore 200 62 graph;
#N canvas 0 22 450 278 (subpatch) 0;
#X array array4r 1.06932e+07 float 2;
#X coords 0 278 1.06932e+07 277 200 140 0;
#X restore 200 83 graph;
#N canvas 1223 400 450 278 (subpatch) 0;
#X array array5r 1.21126e+07 float 2;
#X coords 0 278 1.21126e+07 277 200 140 0;
#X restore 200 104 graph;
#N canvas 0 22 450 278 (subpatch) 0;
#X array array6r 1.95869e+06 float 2;
#X coords 0 278 1.95869e+06 277 200 140 0;
#X restore 200 125 graph;
#N canvas 0 22 450 278 (subpatch) 0;
#X array array7r 196608 float 2;
#X coords 0 278 196608 277 200 140 0;
#X restore 200 146 graph;
#N canvas 0 22 450 278 (subpatch) 0;
#X array array8r 2.54482e+06 float 2;
#X coords 0 278 2.54482e+06 277 200 140 0;
#X restore 200 167 graph;
#N canvas 92 130 1025 705 (subpatch) 0;
#X array array9r 7.51456e+06 float 2;
#X coords 0 705 7.51456e+06 704 200 140 0;
#X restore 250 20 graph;
#N canvas 0 22 450 278 (subpatch) 0;
#X array array10r 1.22806e+07 float 2;
#X coords 0 278 1.22806e+07 277 200 140 0;
#X restore 250 41 graph;
#N canvas 0 22 450 278 (subpatch) 0;
#X array array11r 705600 float 2;
#X coords 0 278 705600 277 200 140 0;
#X restore 250 62 graph;
#N canvas 63 101 450 278 (subpatch) 0;
#X array array12r 2.04859e+06 float 2;
#X coords 0 278 2.04859e+06 277 200 140 0;
#X restore 250 83 graph;
#N canvas 0 22 450 278 (subpatch) 0;
#X array array13r 100 float 2;
#X coords 0 278 1 277 200 140 0;
#X restore 250 104 graph;
#N canvas 0 22 450 278 (subpatch) 0;
#X array array14r 100 float 2;
#X coords 0 278 1 277 200 140 0;
#X restore 250 125 graph;
#N canvas 0 22 450 278 (subpatch) 0;
#X array array15r 100 float 2;
#X coords 0 278 1 277 200 140 0;
#X restore 250 146 graph;
#N canvas 1194 371 450 278 (subpatch) 0;
#X array array16r 100 float 2;
#X coords 0 278 1 277 200 140 0;
#X restore 250 167 graph;
#X msg 124 317 0;
#X obj 126 277 t b b;
#X msg 182 341 0;
#X msg 384 277 read -resize ../samples/sample\$1.wav array\$1l array\$1r;
#X text 97 2 left;
#X text 196 1 right;
#X msg 454 392 \$3;
#X obj 454 416 sel 2;
#X obj 487 445 sel 1;
#X floatatom 395 195 5 0 0 0 - - - 0;
#X obj 384 250 +;
#X msg 354 250 0;
#X obj 454 437 bng 19 250 50 0 empty empty empty 0 -10 0 12 #fcfcfc #000000 #000000;
#X obj 492 63 bng 19 250 50 0 empty empty empty 0 -10 0 12 #fcfcfc #000000 #000000;
#X obj 515 352 soundfiler;
#X msg 516 329 read -resize ../samples/sample\$1.wav array\$1r;
#X obj 517 306 +;
#X msg 486 306 0;
#X msg 402 101 1;
#X floatatom 435 149 5 0 0 0 - - - 0;
#X obj 434 125 +;
#X obj 424 38 loadbang;
#X msg 424 62 0;
#X obj 484 474 bng 19 250 50 0 empty empty empty 0 -10 0 12 #fcfcfc #000000 #000000;
#X obj 349 83 t b b;
#X obj 492 39 pipe 100;
#X obj 395 218 t b f f;
#X obj 209 521 hsl 162 19 0 100 0 0 empty empty empty -2 -10 0 12 #000000 #00ff04 #000000 0 1;
#X text 620 22 right now only for 12 samples but cound of course go higher;
#X text 622 67 change moses 12 to whatever number is needed;
#X obj 347 10 inlet;
#X floatatom 446 515 5 0 0 0 - - - 0;
#X msg 643 409;
#X listbox 709 383 20 0 0 0 - - - 0;
#N canvas 0 22 450 278 (subpatch) 0;
#X array sampling_rates 100 float 2;
#X coords 0 278 1 277 200 140 0;
#X restore 822 138 graph;
#X text 866 138 sampling rates;
#X msg 449 484 \$1;
#X obj 444 568 tabwrite sampling_rates;
#X obj 210 580 outlet;
#X text 227 316 1/14;
#X text 620 44 just change 7.14286 to whatever fraction is needed;
#X obj 435 172 moses 16;
#X msg 161 317 6.25;
#X obj 133 380 + 6.25;
#X obj 208 380 + 6.25;
#X connect 16 0 61 0;
#X connect 16 0 78 0;
#X connect 17 1 40 0;
#X connect 17 1 67 0;
#X connect 17 1 70 0;
#X connect 34 0 16 0;
#X connect 35 0 34 0;
#X connect 35 1 76 0;
#X connect 36 0 77 0;
#X connect 37 0 17 0;
#X connect 40 0 41 0;
#X connect 41 0 46 0;
#X connect 41 1 42 0;
#X connect 42 0 51 0;
#X connect 42 0 57 0;
#X connect 43 0 60 0;
#X connect 44 0 37 0;
#X connect 45 0 44 0;
#X connect 46 0 36 0;
#X connect 46 0 59 0;
#X connect 47 0 58 0;
#X connect 48 0 36 0;
#X connect 48 0 59 0;
#X connect 49 0 48 0;
#X connect 50 0 49 0;
#X connect 51 0 50 0;
#X connect 52 0 54 0;
#X connect 53 0 54 1;
#X connect 53 0 71 1;
#X connect 53 0 75 0;
#X connect 54 0 53 0;
#X connect 55 0 56 0;
#X connect 56 0 54 1;
#X connect 56 0 35 0;
#X connect 58 1 52 0;
#X connect 59 0 47 0;
#X connect 60 0 45 0;
#X connect 60 1 44 1;
#X connect 60 2 50 1;
#X connect 61 0 72 0;
#X connect 64 0 52 0;
#X connect 65 0 71 0;
#X connect 70 0 65 0;
#X connect 75 0 43 0;
#X connect 76 0 77 1;
#X connect 77 0 16 0;
#X connect 78 0 77 1;
