#N canvas 63 101 1155 669 12;
#X obj 110 76 s pd;
#X msg 110 52 midi-dialog \$1 0 0 0 0 0 0 0 0 0 0 0 0 0 0 0 0 0 2 2;
#X floatatom 395 107 5 0 0 0 midi_device_in - - 0;
#X obj 119 236 hsl 162 19 0 127 0 0 fader_volume_loop empty empty -2 -10 0 12 #fcfcfc #000000 #000000 0 1;
#X obj 35 232 ctlin 74;
#X obj 119 266 hsl 162 19 0 127 0 0 fader_grain_size empty empty -2 -10 0 12 #fcfcfc #000000 #000000 0 1;
#X obj 35 262 ctlin 71;
#X obj 119 296 hsl 162 19 0 127 0 0 fader_rev empty empty -2 -10 0 12 #fcfcfc #000000 #000000 0 1;
#X obj 119 326 hsl 162 19 0 127 0 0 fader_dw_loop empty empty -2 -10 0 12 #fcfcfc #000000 #000000 0 1;
#X obj 35 292 ctlin 76;
#X obj 35 322 ctlin 77;
#X obj 119 356 hsl 162 19 0 127 0 0 fader_dw_direct empty empty -2 -10 0 12 #fcfcfc #000000 #000000 0 1;
#X obj 119 386 hsl 162 19 0 127 0 0 fader_stereo_diff empty empty -2 -10 0 12 #fcfcfc #000000 #000000 0 1;
#X obj 119 416 hsl 162 19 0 127 0 0 fader_pitch_range empty empty -2 -10 0 12 #fcfcfc #000000 #000000 0 1;
#X obj 35 352 ctlin 93;
#X obj 35 382 ctlin 73;
#X obj 35 412 ctlin 75;
#X obj 309 236 hsl 162 19 0 127 0 0 fader_random_grain_size empty empty -2 -10 0 12 #fcfcfc #000000 #000000 0 1;
#X obj 309 266 hsl 162 19 0 127 0 0 fader_random_grain_position empty empty -2 -10 0 12 #fcfcfc #000000 #000000 0 1;
#X obj 309 296 hsl 162 19 0 127 0 0 empty empty empty -2 -10 0 12 #fcfcfc #000000 #000000 0 1;
#X obj 309 326 hsl 162 19 0 127 0 0 empty empty empty -2 -10 0 12 #fcfcfc #000000 #000000 0 1;
#X obj 309 356 hsl 162 19 0 127 0 0 empty empty empty -2 -10 0 12 #fcfcfc #000000 #000000 0 1;
#X obj 309 386 hsl 162 19 0 127 0 0 empty empty empty -2 -10 0 12 #fcfcfc #000000 #000000 0 1;
#X obj 309 416 hsl 162 19 0 127 0 0 empty empty empty -2 -10 0 12 #fcfcfc #000000 #000000 0 1;
#X obj 35 452 ctlin 18;
#X obj 35 482 ctlin 19;
#X obj 35 512 ctlin 16;
#X obj 35 542 ctlin 17;
#X obj 35 572 ctlin 91;
#X obj 35 602 ctlin 79;
#X obj 35 632 ctlin 72;
#X connect 1 0 0 0;
#X connect 2 0 1 0;
#X connect 4 0 3 0;
#X connect 6 0 5 0;
#X connect 9 0 7 0;
#X connect 10 0 8 0;
#X connect 14 0 11 0;
#X connect 15 0 12 0;
#X connect 16 0 13 0;
#X connect 24 0 17 0;
#X connect 25 0 18 0;
#X connect 26 0 19 0;
#X connect 27 0 20 0;
#X connect 28 0 21 0;
#X connect 29 0 22 0;
#X connect 30 0 23 0;
#X coords 0 -1 1 1 400 400 1 100 100;
