#N canvas 483 38 864 1051 12;
#X text 118 63 zupf;
#X msg 91 61 1;
#X obj 91 113 mod 4;
#X floatatom 91 137 5 0 0 0 - - - 0;
#X obj 91 89 + 0;
#X obj 91 160 t f f;
#X obj 91 265 sel;
#X obj 261 71 tgl 19 0 empty empty empty 0 -10 0 12 #fcfcfc #000000 #000000 0 1;
#X text 287 73 handballen;
#X obj 292 127 sel 1;
#X obj 245 175 +;
#X msg 248 151 0;
#X floatatom 245 211 5 0 0 0 - - - 24;
#X msg 307 156 10000;
#X floatatom 91 340 5 0 0 0 - - - 0;
#X floatatom 138 128 5 0 0 0 - - - 0;
#X obj 89 315 +;
#X msg 88 289 0;
#X obj 91 654 +;
#X floatatom 91 678 5 0 0 0 - - - 0;
#X obj 91 363 t f f;
#X msg 404 265 0;
#X obj 91 701 mod 4;
#X floatatom 91 725 5 0 0 0 - - - 0;
#X obj 124 387 spigot;
#X obj 151 364 tgl 19 0 empty empty empty 0 -10 0 12 #fcfcfc #000000 #000000 0 1;
#X msg 306 187 0;
#X floatatom 156 611 5 0 0 0 - - - 0;
#X obj 156 563 mod 4;
#X floatatom 155 471 5 0 0 0 - - - 0;
#X msg 154 421 1;
#X obj 155 444 + 0;
#X obj 156 517 div 3;
#X floatatom 156 541 5 0 0 0 - - - 0;
#X obj 155 494 - 1;
#X obj 360 125 sel 0;
#X obj 156 587 + 0;
#X text 84 772 play;
#X text 187 775 stop on new note;
#X text 389 775 stop on handballen off;
#X msg 96 840 \$1 1;
#X obj 216 885 sel;
#X floatatom 216 909 5 0 0 0 - - - 0;
#X obj 213 835 - 1;
#X obj 215 860 mod 4;
#X msg 216 932 \$1 0;
#X msg 401 849 all 0;
#X obj 86 25 inlet;
#X obj 268 32 inlet;
#X obj 98 949 outlet;
#X obj 581 816 pipe 2000;
#X obj 91 748 t f f f;
#X obj 614 845 sel;
#X msg 579 922 \$1 0;
#X text 582 777 stop after 2000ms except hooked note;
#X msg 401 875 all pitch 1;
#X msg 646 476 pitch;
#X obj 646 497 symbol;
#X msg 558 626 0 pitch 1;
#X obj 592 522 pack f s;
#X msg 592 546 set \$1 \$2 1;
#X msg 559 597 0 pitch 0;
#X text 626 602 disable pitch for hooked note;
#X text 637 625 enable pitch for hooked note;
#X obj 576 431 sel 10000;
#X obj 567 383 t b f;
#X msg 682 547 set \$1 \$2 0;
#X obj 707 427 loadbang;
#X connect 1 0 4 0;
#X connect 2 0 3 0;
#X connect 3 0 4 1;
#X connect 3 0 5 0;
#X connect 4 0 2 0;
#X connect 5 0 6 0;
#X connect 5 1 10 1;
#X connect 5 1 16 1;
#X connect 6 0 17 0;
#X connect 6 1 14 0;
#X connect 7 0 9 0;
#X connect 7 0 25 0;
#X connect 7 0 35 0;
#X connect 9 0 11 0;
#X connect 9 1 13 0;
#X connect 9 1 26 0;
#X connect 10 0 12 0;
#X connect 11 0 10 0;
#X connect 12 0 6 1;
#X connect 12 0 41 1;
#X connect 12 0 52 1;
#X connect 12 0 65 0;
#X connect 13 0 12 0;
#X connect 14 0 20 0;
#X connect 16 0 14 0;
#X connect 17 0 16 0;
#X connect 18 0 19 0;
#X connect 19 0 22 0;
#X connect 20 0 18 0;
#X connect 20 1 24 0;
#X connect 21 0 4 1;
#X connect 21 0 16 1;
#X connect 21 0 18 1;
#X connect 21 0 31 1;
#X connect 21 0 46 0;
#X connect 22 0 23 0;
#X connect 23 0 51 0;
#X connect 24 0 30 0;
#X connect 25 0 24 1;
#X connect 26 0 18 1;
#X connect 27 0 18 1;
#X connect 28 0 36 0;
#X connect 29 0 31 1;
#X connect 29 0 34 0;
#X connect 30 0 31 0;
#X connect 31 0 29 0;
#X connect 32 0 33 0;
#X connect 33 0 28 0;
#X connect 34 0 32 0;
#X connect 35 0 21 0;
#X connect 35 0 58 0;
#X connect 36 0 27 0;
#X connect 40 0 49 0;
#X connect 41 1 42 0;
#X connect 42 0 45 0;
#X connect 43 0 44 0;
#X connect 44 0 41 0;
#X connect 45 0 49 0;
#X connect 46 0 49 0;
#X connect 46 0 55 0;
#X connect 47 0 1 0;
#X connect 48 0 7 0;
#X connect 50 0 52 0;
#X connect 51 0 50 0;
#X connect 51 1 40 0;
#X connect 51 2 43 0;
#X connect 52 1 53 0;
#X connect 53 0 49 0;
#X connect 55 0 49 0;
#X connect 56 0 57 0;
#X connect 57 0 59 1;
#X connect 58 0 49 0;
#X connect 59 0 60 0;
#X connect 59 0 66 0;
#X connect 60 0 58 0;
#X connect 61 0 49 0;
#X connect 64 1 59 0;
#X connect 65 0 61 0;
#X connect 65 1 64 0;
#X connect 66 0 61 0;
#X connect 67 0 56 0;
