#N canvas 0 38 1728 1051 12;
#X obj 720 879 vline~;
#X obj 189 319 *~;
#X obj 966 -158 r grainsize;
#X obj 189 343 +~;
#X obj 955 -97 r start_pos;
#X obj 345 -130 bng 30 250 50 0 empty empty PLUCK 0 -10 0 12 #00ff04 #000000 #000000;
#X floatatom 647 -66 5 0 0 0 - - - 0;
#X obj 684 1004 *~;
#X obj 248 479 sig~ 1;
#X obj 248 503 -~;
#X obj 248 526 *~ 0.5;
#X obj 310 479 cos~;
#X obj 180 560 *~;
#X obj 189 652 +~;
#X obj 682 -141 r grainsize;
#X obj 642 -141 r sf;
#X obj 642 -117 /;
#X obj 682 -117 t b f;
#X obj 555 279 wrap~;
#X obj 642 -91 +;
#X obj 356 -211 inlet;
#X obj 673 1094 outlet~;
#X obj 774 1096 outlet~;
#N canvas 9 216 450 505 rand_size 0;
#X obj 114 113 / 100;
#X obj 114 89 random 200;
#X obj 114 137 - 1;
#X floatatom 114 161 5 0 0 0 - - - 0;
#X obj 114 184 *;
#X obj 146 184 r rand_size;
#X obj 114 208 expr pow(2 \, $f1);
#X floatatom 114 232 5 0 0 0 - - - 0;
#X obj 114 64 inlet;
#X obj 231 41 inlet;
#X obj 134 320 outlet;
#X obj 122 278 *;
#X connect 0 0 2 0;
#X connect 1 0 0 0;
#X connect 2 0 3 0;
#X connect 3 0 4 0;
#X connect 4 0 6 0;
#X connect 5 0 4 1;
#X connect 6 0 7 0;
#X connect 7 0 11 0;
#X connect 8 0 1 0;
#X connect 9 0 11 1;
#X connect 11 0 10 0;
#X restore 888 -133 pd rand_size;
#N canvas 179 217 450 505 rand_pos 0;
#X obj 114 113 / 100;
#X obj 114 89 random 200;
#X obj 114 137 - 1;
#X floatatom 114 161 5 0 0 0 - - - 0;
#X obj 114 184 *;
#X obj 114 208 expr pow(2 \, $f1);
#X floatatom 114 232 5 0 0 0 - - - 0;
#X obj 122 40 inlet;
#X obj 231 41 inlet;
#X obj 134 320 outlet;
#X obj 122 278 *;
#X obj 146 184 r rand_pos;
#X connect 0 0 2 0;
#X connect 1 0 0 0;
#X connect 2 0 3 0;
#X connect 3 0 4 0;
#X connect 4 0 5 0;
#X connect 5 0 6 0;
#X connect 6 0 10 0;
#X connect 7 0 1 0;
#X connect 8 0 10 1;
#X connect 10 0 9 0;
#X connect 11 0 4 1;
#X restore 887 -73 pd rand_pos;
#X obj 1159 -161 r grainsize;
#X obj 1139 -98 r start_pos;
#N canvas 179 217 450 505 rand_size 0;
#X obj 114 113 / 100;
#X obj 114 89 random 200;
#X obj 114 137 - 1;
#X floatatom 114 161 5 0 0 0 - - - 0;
#X obj 114 184 *;
#X obj 146 184 r rand_size;
#X obj 114 208 expr pow(2 \, $f1);
#X floatatom 114 232 5 0 0 0 - - - 0;
#X obj 114 64 inlet;
#X obj 231 41 inlet;
#X obj 134 320 outlet;
#X obj 122 278 *;
#X connect 0 0 2 0;
#X connect 1 0 0 0;
#X connect 2 0 3 0;
#X connect 3 0 4 0;
#X connect 4 0 6 0;
#X connect 5 0 4 1;
#X connect 6 0 7 0;
#X connect 7 0 11 0;
#X connect 8 0 1 0;
#X connect 9 0 11 1;
#X connect 11 0 10 0;
#X restore 1072 -134 pd rand_size;
#N canvas 179 217 450 505 rand_pos 0;
#X obj 114 113 / 100;
#X obj 114 89 random 200;
#X obj 114 137 - 1;
#X floatatom 114 161 5 0 0 0 - - - 0;
#X obj 114 184 *;
#X obj 114 208 expr pow(2 \, $f1);
#X floatatom 114 232 5 0 0 0 - - - 0;
#X obj 122 40 inlet;
#X obj 231 41 inlet;
#X obj 134 320 outlet;
#X obj 122 278 *;
#X obj 146 184 r rand_pos;
#X connect 0 0 2 0;
#X connect 1 0 0 0;
#X connect 2 0 3 0;
#X connect 3 0 4 0;
#X connect 4 0 5 0;
#X connect 5 0 6 0;
#X connect 6 0 10 0;
#X connect 7 0 1 0;
#X connect 8 0 10 1;
#X connect 10 0 9 0;
#X connect 11 0 4 1;
#X restore 1071 -74 pd rand_pos;
#X obj 869 297 wrap~;
#X obj 1343 -160 r grainsize;
#X obj 1322 -97 r start_pos;
#N canvas 179 217 450 505 rand_size 0;
#X obj 114 113 / 100;
#X obj 114 89 random 200;
#X obj 114 137 - 1;
#X floatatom 114 161 5 0 0 0 - - - 0;
#X obj 114 184 *;
#X obj 146 184 r rand_size;
#X obj 114 208 expr pow(2 \, $f1);
#X floatatom 114 232 5 0 0 0 - - - 0;
#X obj 114 64 inlet;
#X obj 231 41 inlet;
#X obj 134 320 outlet;
#X obj 122 278 *;
#X connect 0 0 2 0;
#X connect 1 0 0 0;
#X connect 2 0 3 0;
#X connect 3 0 4 0;
#X connect 4 0 6 0;
#X connect 5 0 4 1;
#X connect 6 0 7 0;
#X connect 7 0 11 0;
#X connect 8 0 1 0;
#X connect 9 0 11 1;
#X connect 11 0 10 0;
#X restore 1255 -133 pd rand_size;
#N canvas 179 217 450 505 rand_pos 0;
#X obj 114 113 / 100;
#X obj 114 89 random 200;
#X obj 114 137 - 1;
#X floatatom 114 161 5 0 0 0 - - - 0;
#X obj 114 184 *;
#X obj 114 208 expr pow(2 \, $f1);
#X floatatom 114 232 5 0 0 0 - - - 0;
#X obj 122 40 inlet;
#X obj 231 41 inlet;
#X obj 134 320 outlet;
#X obj 122 278 *;
#X obj 146 184 r rand_pos;
#X connect 0 0 2 0;
#X connect 1 0 0 0;
#X connect 2 0 3 0;
#X connect 3 0 4 0;
#X connect 4 0 5 0;
#X connect 5 0 6 0;
#X connect 6 0 10 0;
#X connect 7 0 1 0;
#X connect 8 0 10 1;
#X connect 10 0 9 0;
#X connect 11 0 4 1;
#X restore 1254 -73 pd rand_pos;
#X obj 869 273 +~ 0.67;
#X obj 774 1010 *~;
#X obj 983 643 r velocity;
#X obj 846 745 +;
#X obj 345 -95 t b b;
#X floatatom 936 779 5 0 0 0 - - - 0;
#X obj 774 812 pack f f f f f f;
#X obj 275 260 sig~;
#X obj 275 284 samphold~;
#X obj 349 282 sig~;
#X obj 349 306 samphold~;
#X obj 525 365 *~;
#X obj 525 389 +~;
#X obj 579 470 sig~ 1;
#X obj 579 494 -~;
#X obj 579 518 *~ 0.5;
#X obj 641 470 cos~;
#X obj 528 522 *~;
#X obj 611 306 sig~;
#X obj 611 330 samphold~;
#X obj 685 328 sig~;
#X obj 685 352 samphold~;
#X obj 832 382 *~;
#X obj 832 406 +~;
#X obj 901 490 sig~ 1;
#X obj 901 514 -~;
#X obj 901 538 *~ 0.5;
#X obj 963 490 cos~;
#X obj 835 539 *~;
#X obj 918 323 sig~;
#X obj 918 347 samphold~;
#X obj 992 345 sig~;
#X obj 992 369 samphold~;
#X obj 184 910 +~;
#X obj 1132 917 +~;
#X obj 196 209 +~;
#X obj 599 67 phasor~;
#X obj 426 613 +~;
#X obj 188 625 *~ 1;
#X obj 90 1519 vsl 19 162 0 127 0 0 empty empty empty 0 -9 0 12 #fcfcfc #000000 #000000 0 1;
#X obj -52 1671 bng 19 250 50 0 empty empty empty 0 -10 0 12 #fcfcfc #000000 #000000;
#X obj 777 668 t b b;
#N canvas 0 38 864 1051 env_2nd_grain 0;
#X obj 280 328 outlet~;
#X obj 282 300 vline~;
#X text 291 19 Calculate and apply envelop to suppress artifacts inside secondary grains. When main phasor resets \, secondary grains phase will be already >0 \, thus resulting in clicks. This patch applies an envelope to wait for the duration of 1/3 or 2/3 of a grain \, = until the phase is at 0 again.;
#X obj 186 114 inlet~;
#X obj 115 178 bng 19 250 50 0 empty empty empty 0 -10 0 12 #fcfcfc #000000 #000000;
#X obj 175 179 bng 19 250 50 0 empty empty empty 0 -10 0 12 #fcfcfc #000000 #000000;
#X obj 65 47 tgl 19 0 empty empty empty 0 -10 0 12 #fcfcfc #000000 #000000 0 1;
#X obj 65 71 metro;
#X obj 65 95 snapshot~;
#X floatatom 65 119 5 0 0 0 - - - 0;
#X obj 120 303 bng 19 250 50 0 empty empty empty 0 -10 0 12 #fcfcfc #000000 #000000;
#X obj 152 265 bng 19 250 50 0 empty empty empty 0 -10 0 12 #fcfcfc #000000 #000000;
#X obj 119 153 threshold~ 0.9999 0.1 0.5 0.1;
#X msg 142 226 0 3;
#X msg 115 281 1 1;
#X obj 142 204 r \$0-pluck;
#X connect 1 0 0 0;
#X connect 3 0 8 0;
#X connect 3 0 12 0;
#X connect 4 0 14 0;
#X connect 6 0 7 0;
#X connect 7 0 8 0;
#X connect 8 0 9 0;
#X connect 12 0 4 0;
#X connect 12 1 5 0;
#X connect 13 0 1 0;
#X connect 13 0 11 0;
#X connect 14 0 1 0;
#X connect 14 0 10 0;
#X connect 15 0 13 0;
#X restore 586 550 pd env_2nd_grain;
#N canvas 0 38 803 1051 env_3rd_grain 0;
#X obj 325 349 outlet~;
#X obj 327 321 vline~;
#X text 336 40 Calculate and apply envelop to suppress artifacts inside secondary grains. When main phasor resets \, secondary grains phase will be already >0 \, thus resulting in clicks. This patch applies an envelope to wait for the duration of 1/3 or 2/3 of a grain \, = until the phase is at 0 again.;
#X obj 231 135 inlet~;
#X obj 160 199 bng 19 250 50 0 empty empty empty 0 -10 0 12 #fcfcfc #000000 #000000;
#X obj 220 200 bng 19 250 50 0 empty empty empty 0 -10 0 12 #fcfcfc #000000 #000000;
#X obj 110 68 tgl 19 0 empty empty empty 0 -10 0 12 #fcfcfc #000000 #000000 0 1;
#X obj 110 92 metro;
#X obj 110 116 snapshot~;
#X floatatom 110 140 5 0 0 0 - - - 0;
#X msg 160 302 1;
#X obj 165 324 bng 19 250 50 0 empty empty empty 0 -10 0 12 #fcfcfc #000000 #000000;
#X obj 197 286 bng 19 250 50 0 empty empty empty 0 -10 0 12 #fcfcfc #000000 #000000;
#X obj 164 174 threshold~ 0.9999 0.1 0.5 0.1;
#X msg 187 247 0 2;
#X obj 187 225 r \$0-pluck;
#X connect 1 0 0 0;
#X connect 3 0 8 0;
#X connect 3 0 13 0;
#X connect 4 0 10 0;
#X connect 6 0 7 0;
#X connect 7 0 8 0;
#X connect 8 0 9 0;
#X connect 10 0 1 0;
#X connect 10 0 11 0;
#X connect 13 0 4 0;
#X connect 13 1 5 0;
#X connect 14 0 1 0;
#X connect 14 0 12 0;
#X connect 15 0 14 0;
#X restore 897 569 pd env_3rd_grain;
#X obj 1087 299 *~;
#X obj 1087 323 +~;
#X obj 1453 259 wrap~;
#X obj 1767 277 wrap~;
#X obj 1767 253 +~ 0.67;
#X obj 1173 240 sig~;
#X obj 1173 264 samphold~;
#X obj 1247 262 sig~;
#X obj 1247 286 samphold~;
#X obj 1423 345 *~;
#X obj 1423 369 +~;
#X obj 1509 286 sig~;
#X obj 1509 310 samphold~;
#X obj 1583 308 sig~;
#X obj 1583 332 samphold~;
#X obj 1730 362 *~;
#X obj 1730 386 +~;
#X obj 1816 303 sig~;
#X obj 1816 327 samphold~;
#X obj 1890 325 sig~;
#X obj 1890 349 samphold~;
#X obj 1094 189 +~;
#X listbox 792 881 60 0 0 0 - - - 0;
#X obj 936 802 + 200;
#X text 791 901 0|loudness|sustain|release|attack|release start;
#X obj 983 667 pow 0.5;
#X obj 984 713 / 127;
#X obj 984 737 - 1;
#X obj 984 785 + 1;
#X obj 984 761 * -999;
#X obj 984 690 * 11.26;
#X obj 472 -91 r pitchbend;
#X obj 615 17 *;
#X obj 462 68 t b f;
#X floatatom 496 101 5 0 0 0 - - - 0;
#X floatatom 506 -28 5 0 0 0 - - - 0;
#X obj 469 -5 t b f;
#X obj 411 -20 loadbang;
#X obj 467 20 pow 1;
#X obj 469 -29 * 2;
#X msg 411 4 2;
#X obj 467 44 / 2;
#X obj 785 750 t b b b;
#X msg 666 34 0;
#X obj 625 -20 +;
#X obj 836 783 / 1.3;
#X obj 882 780 * 4000;
#X msg 769 698 0 1;
#X obj 785 726 del 2;
#X obj 686 470 wrap~;
#X obj 1000 488 wrap~;
#X obj 1000 464 +~ 0.66667;
#X text 290 408 expr~ 1 + pow($v1 -1 \, 3);
#X obj 686 446 +~ 0.33333;
#X obj 1182 464 sig~ 1;
#X obj 1182 488 -~;
#X obj 1182 511 *~ 0.5;
#X obj 1244 464 cos~;
#X obj 1114 545 *~;
#X obj 1123 637 +~;
#X obj 1513 455 sig~ 1;
#X obj 1513 479 -~;
#X obj 1513 503 *~ 0.5;
#X obj 1575 455 cos~;
#X obj 1462 507 *~;
#X obj 1835 475 sig~ 1;
#X obj 1835 499 -~;
#X obj 1835 523 *~ 0.5;
#X obj 1897 475 cos~;
#X obj 1769 524 *~;
#X obj 1360 598 +~;
#X obj 1122 610 *~ 1;
#N canvas 828 38 864 1051 env_2nd_grain 0;
#X obj 280 328 outlet~;
#X obj 282 300 vline~;
#X text 291 19 Calculate and apply envelop to suppress artifacts inside secondary grains. When main phasor resets \, secondary grains phase will be already >0 \, thus resulting in clicks. This patch applies an envelope to wait for the duration of 1/3 or 2/3 of a grain \, = until the phase is at 0 again.;
#X obj 186 114 inlet~;
#X obj 115 178 bng 19 250 50 0 empty empty empty 0 -10 0 12 #fcfcfc #000000 #000000;
#X obj 175 179 bng 19 250 50 0 empty empty empty 0 -10 0 12 #fcfcfc #000000 #000000;
#X obj 65 47 tgl 19 0 empty empty empty 0 -10 0 12 #fcfcfc #000000 #000000 0 1;
#X obj 65 71 metro;
#X obj 65 95 snapshot~;
#X floatatom 65 119 5 0 0 0 - - - 0;
#X obj 120 303 bng 19 250 50 0 empty empty empty 0 -10 0 12 #fcfcfc #000000 #000000;
#X obj 152 265 bng 19 250 50 0 empty empty empty 0 -10 0 12 #fcfcfc #000000 #000000;
#X obj 119 153 threshold~ 0.9999 0.1 0.5 0.1;
#X msg 142 226 0 3;
#X msg 115 281 1 1;
#X obj 142 204 r \$0-pluck;
#X connect 1 0 0 0;
#X connect 3 0 8 0;
#X connect 3 0 12 0;
#X connect 4 0 14 0;
#X connect 6 0 7 0;
#X connect 7 0 8 0;
#X connect 8 0 9 0;
#X connect 12 0 4 0;
#X connect 12 1 5 0;
#X connect 13 0 1 0;
#X connect 13 0 11 0;
#X connect 14 0 1 0;
#X connect 14 0 10 0;
#X connect 15 0 13 0;
#X restore 1520 535 pd env_2nd_grain;
#N canvas 0 38 803 1051 env_3rd_grain 0;
#X obj 325 349 outlet~;
#X obj 327 321 vline~;
#X text 336 40 Calculate and apply envelop to suppress artifacts inside secondary grains. When main phasor resets \, secondary grains phase will be already >0 \, thus resulting in clicks. This patch applies an envelope to wait for the duration of 1/3 or 2/3 of a grain \, = until the phase is at 0 again.;
#X obj 231 135 inlet~;
#X obj 160 199 bng 19 250 50 0 empty empty empty 0 -10 0 12 #fcfcfc #000000 #000000;
#X obj 220 200 bng 19 250 50 0 empty empty empty 0 -10 0 12 #fcfcfc #000000 #000000;
#X obj 110 68 tgl 19 0 empty empty empty 0 -10 0 12 #fcfcfc #000000 #000000 0 1;
#X obj 110 92 metro;
#X obj 110 116 snapshot~;
#X floatatom 110 140 5 0 0 0 - - - 0;
#X obj 165 324 bng 19 250 50 0 empty empty empty 0 -10 0 12 #fcfcfc #000000 #000000;
#X obj 197 286 bng 19 250 50 0 empty empty empty 0 -10 0 12 #fcfcfc #000000 #000000;
#X obj 164 174 threshold~ 0.9999 0.1 0.5 0.1;
#X msg 160 302 1 1;
#X msg 187 247 0 3;
#X obj 187 225 r \$0-pluck;
#X connect 1 0 0 0;
#X connect 3 0 8 0;
#X connect 3 0 12 0;
#X connect 4 0 13 0;
#X connect 6 0 7 0;
#X connect 7 0 8 0;
#X connect 8 0 9 0;
#X connect 12 0 4 0;
#X connect 12 1 5 0;
#X connect 13 0 1 0;
#X connect 13 0 10 0;
#X connect 14 0 1 0;
#X connect 14 0 11 0;
#X connect 15 0 14 0;
#X restore 1829 556 pd env_3rd_grain;
#X obj 1620 455 wrap~;
#X obj 1934 473 wrap~;
#X obj 1934 449 +~ 0.66667;
#X text 1226 393 expr~ 1 + pow($v1 -1 \, 3);
#X obj 1620 431 +~ 0.33333;
#X obj 992 -11 r stereo_diff;
#N canvas 9 216 450 505 stereo_size 0;
#X obj 114 64 inlet;
#X obj 231 41 inlet;
#X obj 134 320 outlet;
#X obj 122 278 *;
#X obj 189 129 random 100;
#X obj 189 153 / 100;
#X text 279 42 0 - 1;
#X obj 114 88 t f b b;
#X msg 145 180 1;
#X obj 188 179 - 0.5;
#X obj 188 203 *;
#X obj 183 234 +;
#X connect 0 0 7 0;
#X connect 1 0 10 1;
#X connect 3 0 2 0;
#X connect 4 0 5 0;
#X connect 5 0 9 0;
#X connect 7 0 3 0;
#X connect 7 1 4 0;
#X connect 7 2 8 0;
#X connect 8 0 11 1;
#X connect 9 0 10 0;
#X connect 10 0 11 0;
#X connect 11 0 3 1;
#X restore 938 15 pd stereo_size;
#X obj 1204 -11 r stereo_diff;
#N canvas 9 216 450 505 stereo_size 0;
#X obj 114 64 inlet;
#X obj 231 41 inlet;
#X obj 134 320 outlet;
#X obj 122 278 *;
#X obj 189 129 random 100;
#X obj 189 153 / 100;
#X text 279 42 0 - 1;
#X obj 114 88 t f b b;
#X msg 145 180 1;
#X obj 188 179 - 0.5;
#X obj 188 203 *;
#X obj 183 234 +;
#X connect 0 0 7 0;
#X connect 1 0 10 1;
#X connect 3 0 2 0;
#X connect 4 0 5 0;
#X connect 5 0 9 0;
#X connect 7 0 3 0;
#X connect 7 1 4 0;
#X connect 7 2 8 0;
#X connect 8 0 11 1;
#X connect 9 0 10 0;
#X connect 10 0 11 0;
#X connect 11 0 3 1;
#X restore 1150 15 pd stereo_size;
#X obj 1394 -15 r stereo_diff;
#N canvas 9 216 450 505 stereo_size 0;
#X obj 114 64 inlet;
#X obj 231 41 inlet;
#X obj 134 320 outlet;
#X obj 122 278 *;
#X obj 189 129 random 100;
#X obj 189 153 / 100;
#X text 279 42 0 - 1;
#X obj 114 88 t f b b;
#X msg 145 180 1;
#X obj 188 179 - 0.5;
#X obj 188 203 *;
#X obj 183 234 +;
#X connect 0 0 7 0;
#X connect 1 0 10 1;
#X connect 3 0 2 0;
#X connect 4 0 5 0;
#X connect 5 0 9 0;
#X connect 7 0 3 0;
#X connect 7 1 4 0;
#X connect 7 2 8 0;
#X connect 8 0 11 1;
#X connect 9 0 10 0;
#X connect 10 0 11 0;
#X connect 11 0 3 1;
#X restore 1340 11 pd stereo_size;
#X obj 555 255 +~ 0.333;
#X obj 1453 235 +~ 0.333;
#X obj 253 427 *~ 1;
#X obj 1184 416 *~ 1;
#X obj 341 -72 s \$0-pluck2;
#X obj 391 -93 s \$0-pluck;
#X obj 701 -76 r \$0-pluck2;
#X obj 777 644 r \$0-pluck;
#X obj 888 -158 r \$0-pluck;
#X obj 1080 -161 r \$0-pluck;
#X obj 1256 -164 r \$0-pluck;
#X obj 442 -157 sel 1;
#X obj 470 -127 s \$0-off;
#X msg 792 857 \$2 \$5 \, \$3 200 \$5;
#X msg 937 859;
#X obj 582 754 r \$0-off;
#X obj 583 785 pack f f;
#X msg 583 812 0 1000;
#X obj 356 -186 route pitch;
#X obj 149 -172 tgl 19 0 empty empty empty 0 -10 0 12 #fcfcfc #000000 #000000 0 1;
#X obj 214 48 spigot;
#X obj 240 25 tgl 19 0 empty empty empty 0 -10 0 12 #fcfcfc #000000 #000000 0 1;
#X obj 193 -2 loadbang;
#X obj 189 367 tabread4~;
#X obj 525 413 tabread4~;
#X obj 832 430 tabread4~;
#X obj 1087 347 tabread4~;
#X obj 1459 398 tabread4~;
#X obj 1766 415 tabread4~;
#X msg 301 377 set array\$1l;
#X msg 653 411 set array\$1l;
#X msg 924 429 set array\$1l;
#X msg 1172 344 set array\$1r;
#X msg 1537 395 set array\$1r;
#X msg 1839 413 set array\$1r;
#X obj 12 -105 r num_sample;
#X obj 88 45 spigot;
#X obj 131 22 tgl 19 0 empty empty empty 0 -10 0 12 #fcfcfc #000000 #000000 0 1;
#X obj 84 -5 loadbang;
#X obj -7 3 +;
#X msg 17 -27 0;
#X obj 528 546 *~ 1;
#X obj 835 563 *~ 1;
#X floatatom 733 3 5 0 0 0 - - - 0;
#X obj 732 -19 +;
#X obj 1769 548 *~ 1;
#X obj 1462 531 *~ 1;
#X obj 182 -48 sel 0;
#X msg 257 -46 1;
#X msg 226 -47 0;
#X text 217 -65 keep pitch;
#X obj 720 934 *~;
#X obj 721 962 *~;
#X connect 0 0 214 0;
#X connect 0 0 214 1;
#X connect 1 0 3 0;
#X connect 2 0 23 1;
#X connect 3 0 186 0;
#X connect 4 0 24 1;
#X connect 5 0 38 0;
#X connect 5 0 203 0;
#X connect 6 0 122 1;
#X connect 7 0 21 0;
#X connect 8 0 9 0;
#X connect 9 0 10 0;
#X connect 10 0 12 1;
#X connect 11 0 9 1;
#X connect 12 0 72 0;
#X connect 13 0 67 0;
#X connect 14 0 17 0;
#X connect 15 0 16 0;
#X connect 16 0 19 1;
#X connect 17 0 16 0;
#X connect 17 1 16 1;
#X connect 17 1 207 1;
#X connect 18 0 45 0;
#X connect 19 0 6 0;
#X connect 20 0 181 0;
#X connect 23 0 41 0;
#X connect 23 0 158 0;
#X connect 24 0 43 0;
#X connect 24 0 85 0;
#X connect 25 0 27 1;
#X connect 26 0 28 1;
#X connect 27 0 52 0;
#X connect 27 0 160 0;
#X connect 28 0 54 0;
#X connect 28 0 91 0;
#X connect 29 0 56 0;
#X connect 30 0 32 1;
#X connect 31 0 33 1;
#X connect 32 0 63 0;
#X connect 32 0 162 0;
#X connect 33 0 65 0;
#X connect 33 0 97 0;
#X connect 34 0 29 0;
#X connect 35 0 22 0;
#X connect 36 0 103 0;
#X connect 37 0 40 1;
#X connect 37 0 123 0;
#X connect 37 0 124 0;
#X connect 38 0 167 0;
#X connect 38 0 211 0;
#X connect 38 1 168 0;
#X connect 39 0 40 4;
#X connect 39 0 101 0;
#X connect 40 0 176 0;
#X connect 40 0 100 0;
#X connect 41 0 42 0;
#X connect 42 0 1 1;
#X connect 43 0 44 0;
#X connect 44 0 3 1;
#X connect 45 0 46 0;
#X connect 46 0 187 0;
#X connect 47 0 48 0;
#X connect 48 0 49 0;
#X connect 49 0 51 1;
#X connect 50 0 48 1;
#X connect 51 0 204 0;
#X connect 52 0 53 0;
#X connect 53 0 45 1;
#X connect 54 0 55 0;
#X connect 55 0 46 1;
#X connect 56 0 57 0;
#X connect 57 0 188 0;
#X connect 58 0 59 0;
#X connect 59 0 60 0;
#X connect 60 0 62 1;
#X connect 61 0 59 1;
#X connect 62 0 205 0;
#X connect 63 0 64 0;
#X connect 64 0 56 1;
#X connect 65 0 66 0;
#X connect 66 0 57 1;
#X connect 67 0 7 0;
#X connect 68 0 35 0;
#X connect 69 0 1 0;
#X connect 69 0 42 1;
#X connect 69 0 44 1;
#X connect 69 0 163 0;
#X connect 69 0 165 0;
#X connect 69 0 34 0;
#X connect 69 0 53 1;
#X connect 69 0 55 1;
#X connect 69 0 64 1;
#X connect 69 0 66 1;
#X connect 70 0 69 0;
#X connect 70 0 99 0;
#X connect 71 0 13 1;
#X connect 72 0 13 0;
#X connect 75 0 126 0;
#X connect 75 1 125 0;
#X connect 78 0 79 0;
#X connect 79 0 189 0;
#X connect 80 0 87 0;
#X connect 81 0 93 0;
#X connect 82 0 81 0;
#X connect 83 0 84 0;
#X connect 84 0 78 1;
#X connect 85 0 86 0;
#X connect 86 0 79 1;
#X connect 87 0 88 0;
#X connect 88 0 190 0;
#X connect 89 0 90 0;
#X connect 90 0 87 1;
#X connect 91 0 92 0;
#X connect 92 0 88 1;
#X connect 93 0 94 0;
#X connect 94 0 191 0;
#X connect 95 0 96 0;
#X connect 96 0 93 1;
#X connect 97 0 98 0;
#X connect 98 0 94 1;
#X connect 99 0 78 0;
#X connect 99 0 82 0;
#X connect 99 0 84 1;
#X connect 99 0 86 1;
#X connect 99 0 164 0;
#X connect 99 0 166 0;
#X connect 99 0 90 1;
#X connect 99 0 92 1;
#X connect 99 0 96 1;
#X connect 99 0 98 1;
#X connect 101 0 40 5;
#X connect 103 0 108 0;
#X connect 104 0 105 0;
#X connect 104 0 37 1;
#X connect 105 0 107 0;
#X connect 106 0 39 0;
#X connect 107 0 106 0;
#X connect 108 0 104 0;
#X connect 109 0 183 0;
#X connect 110 0 70 0;
#X connect 111 0 110 0;
#X connect 111 1 110 1;
#X connect 111 1 112 0;
#X connect 114 0 116 0;
#X connect 114 1 116 1;
#X connect 115 0 118 0;
#X connect 116 0 119 0;
#X connect 117 0 113 0;
#X connect 117 0 114 0;
#X connect 118 0 116 0;
#X connect 119 0 111 0;
#X connect 120 1 40 0;
#X connect 120 2 37 0;
#X connect 120 2 121 0;
#X connect 121 0 70 1;
#X connect 121 0 122 0;
#X connect 122 0 110 0;
#X connect 123 0 40 2;
#X connect 124 0 40 3;
#X connect 124 0 179 1;
#X connect 125 0 0 0;
#X connect 126 0 120 0;
#X connect 127 0 50 0;
#X connect 127 0 76 0;
#X connect 128 0 61 0;
#X connect 128 0 77 0;
#X connect 129 0 128 0;
#X connect 131 0 127 0;
#X connect 132 0 133 0;
#X connect 133 0 134 0;
#X connect 134 0 136 1;
#X connect 135 0 133 1;
#X connect 136 0 149 0;
#X connect 137 0 68 0;
#X connect 138 0 139 0;
#X connect 139 0 140 0;
#X connect 140 0 142 1;
#X connect 141 0 139 1;
#X connect 142 0 209 0;
#X connect 143 0 144 0;
#X connect 144 0 145 0;
#X connect 145 0 147 1;
#X connect 146 0 144 1;
#X connect 147 0 208 0;
#X connect 148 0 137 1;
#X connect 149 0 137 0;
#X connect 152 0 141 0;
#X connect 152 0 150 0;
#X connect 153 0 146 0;
#X connect 153 0 151 0;
#X connect 154 0 153 0;
#X connect 156 0 152 0;
#X connect 157 0 158 1;
#X connect 158 0 83 0;
#X connect 159 0 160 1;
#X connect 160 0 89 0;
#X connect 161 0 162 1;
#X connect 162 0 95 0;
#X connect 163 0 18 0;
#X connect 164 0 80 0;
#X connect 165 0 11 0;
#X connect 165 0 129 0;
#X connect 165 0 131 0;
#X connect 166 0 135 0;
#X connect 166 0 154 0;
#X connect 166 0 156 0;
#X connect 169 0 19 0;
#X connect 169 0 207 0;
#X connect 170 0 75 0;
#X connect 171 0 23 0;
#X connect 171 0 24 0;
#X connect 172 0 27 0;
#X connect 172 0 28 0;
#X connect 173 0 32 0;
#X connect 173 0 33 0;
#X connect 174 0 5 0;
#X connect 174 1 175 0;
#X connect 176 0 0 0;
#X connect 178 0 179 0;
#X connect 179 0 180 0;
#X connect 180 0 0 0;
#X connect 181 0 182 0;
#X connect 181 1 174 0;
#X connect 182 0 200 0;
#X connect 182 0 210 0;
#X connect 183 0 117 0;
#X connect 184 0 183 1;
#X connect 185 0 184 0;
#X connect 186 0 12 0;
#X connect 187 0 51 0;
#X connect 188 0 62 0;
#X connect 189 0 136 0;
#X connect 190 0 142 0;
#X connect 191 0 147 0;
#X connect 192 0 186 0;
#X connect 193 0 187 0;
#X connect 194 0 188 0;
#X connect 195 0 189 0;
#X connect 196 0 190 0;
#X connect 197 0 191 0;
#X connect 198 0 202 1;
#X connect 198 0 199 0;
#X connect 199 0 192 0;
#X connect 199 0 193 0;
#X connect 199 0 194 0;
#X connect 199 0 195 0;
#X connect 199 0 196 0;
#X connect 199 0 197 0;
#X connect 200 0 199 1;
#X connect 201 0 200 0;
#X connect 202 0 199 0;
#X connect 203 0 202 0;
#X connect 204 0 71 0;
#X connect 205 0 71 1;
#X connect 207 0 206 0;
#X connect 208 0 148 1;
#X connect 209 0 148 0;
#X connect 210 0 212 0;
#X connect 211 0 184 0;
#X connect 212 0 184 0;
#X connect 214 0 215 0;
#X connect 214 0 215 1;
#X connect 215 0 7 1;
#X connect 215 0 35 1;
