#N canvas 602 129 1148 790 12;
#X text 196 264 requires comport library;
#X obj 193 242 comport 0 9600;
#X msg 154 196 devices;
#X msg 277 197 close;
#X msg 219 196 open 1;
#X obj 192 311 sel 13 10;
#X obj 192 363 cyclone/zl group 100;
#X obj 192 393 list tosymbol;
#X obj 192 423 cyclone/fromsymbol;
#X floatatom 194 486 5 0 0 0 - - - 0;
#X obj 310 312 sel 13 11;
#X obj 194 447 list split 1;
#X floatatom 245 519 5 0 0 0 - - - 0;
#X obj 245 480 list split 1;
#X obj 325 112 inlet;
#X obj 380 114 inlet;
#X obj 195 634 outlet;
#X obj 247 663 outlet;
#X obj 305 694 outlet;
#X floatatom 304 550 5 0 0 0 - - - 0;
#X obj 304 511 list split 1;
#X floatatom 355 583 5 0 0 0 - - - 0;
#X obj 355 544 list split 1;
#X obj 357 729 outlet;
#X text 82 632 distance in mm;
#X text 129 663 fader (0-62754);
#X text 193 692 pitchbend (?);
#X text 205 730 capacitive touch (?);
#X connect 1 0 5 0;
#X connect 1 0 10 0;
#X connect 2 0 1 0;
#X connect 3 0 1 0;
#X connect 4 0 1 0;
#X connect 5 0 6 0;
#X connect 5 2 6 0;
#X connect 6 0 7 0;
#X connect 7 0 8 0;
#X connect 8 0 11 0;
#X connect 9 0 16 0;
#X connect 11 0 9 0;
#X connect 11 1 13 0;
#X connect 12 0 17 0;
#X connect 13 0 12 0;
#X connect 13 1 20 0;
#X connect 14 0 1 0;
#X connect 15 0 1 0;
#X connect 19 0 18 0;
#X connect 20 0 19 0;
#X connect 20 1 22 0;
#X connect 21 0 23 0;
#X connect 22 0 21 0;
