#N struct m1 float x float y float q;
#N canvas 0 38 1728 1051 12;
#X obj 463 46 granular_dan_bau;
#X obj 101 650 notein;
#X obj 101 677 pack f f;
#X obj 75 707 keyboard;
#X obj 716 596 dac~;
#X obj 430 462 clip~ -0.99 0.99;
#X obj 1216 462 clip~ -0.99 0.99;
#X obj 14 28 midi-fader;
#X floatatom 383 550 5 0 0 0 - - - 0;
#X obj 383 526 env~;
#X text 59 345 pitch range;
#X connect 0 0 5 0;
#X connect 0 1 6 0;
#X connect 1 0 2 0;
#X connect 1 1 2 1;
#X connect 2 0 3 0;
#X connect 5 0 4 0;
#X connect 5 0 9 0;
#X connect 6 0 4 1;
#X connect 9 0 8 0;
