#N struct m1 float x float y float q;
#N canvas 0 38 1728 1051 12;
#X obj 463 46 granular_dan_bau;
#X obj 101 650 notein;
#X obj 101 677 pack f f;
#X obj 75 707 keyboard;
#X obj 716 596 dac~;
#X obj 430 462 clip~ -0.99 0.99;
#X obj 1216 462 clip~ -0.99 0.99;
#X obj 14 28 midi-fader;
#X floatatom 383 550 5 0 0 0 - - - 0;
#X obj 383 526 env~;
#X text 59 345 pitch range;
#N canvas 294 163 834 462 counter 0;
#X floatatom 110 169 5 0 0 0 - - - 36;
#X floatatom 110 224 5 0 0 0 - - - 36;
#X obj 189 140 bng 19 250 50 0 empty empty reset 0 -10 0 12 #fcfcfc #000000 #000000;
#X obj 110 140 tgl 19 0 empty empty on/off 0 -10 0 12 #fcfcfc #000000 #000000 0 1;
#X msg 454 172 1;
#X obj 454 196 + 1;
#X floatatom 454 221 5 0 0 0 - - - 0;
#X msg 354 202 0;
#X floatatom 454 268 5 0 0 0 - - - 0;
#X obj 387 246 div 60;
#X obj 454 244 mod 60;
#X floatatom 387 270 5 0 0 0 - - - 0;
#X obj 439 9 metro 1000;
#X floatatom 110 279 2 0 0 1 Sect - - 36;
#X obj 561 219 route 60 120 260 310 380 440 500;
#X msg 560 247 1;
#X msg 595 247 2;
#X msg 629 247 3;
#X msg 667 249 4;
#X msg 704 250 5;
#X msg 742 249 6;
#X msg 778 250 7;
#X connect 2 0 7 0;
#X connect 3 0 12 0;
#X connect 4 0 5 0;
#X connect 5 0 6 0;
#X connect 6 0 5 1;
#X connect 6 0 10 0;
#X connect 6 0 9 0;
#X connect 6 0 14 0;
#X connect 7 0 6 0;
#X connect 7 0 5 1;
#X connect 7 0 13 0;
#X connect 8 0 1 0;
#X connect 9 0 11 0;
#X connect 10 0 8 0;
#X connect 11 0 0 0;
#X connect 12 0 4 0;
#X connect 14 0 15 0;
#X connect 14 1 16 0;
#X connect 14 2 17 0;
#X connect 14 3 18 0;
#X connect 14 4 19 0;
#X connect 14 5 20 0;
#X connect 14 6 21 0;
#X connect 15 0 13 0;
#X connect 16 0 13 0;
#X connect 17 0 13 0;
#X connect 18 0 13 0;
#X connect 19 0 13 0;
#X connect 20 0 13 0;
#X connect 21 0 13 0;
#X coords 0 -1 1 1 150 250 1 100 100;
#X restore 1372 47 pd counter;
#X connect 0 0 5 0;
#X connect 0 1 6 0;
#X connect 1 0 2 0;
#X connect 1 1 2 1;
#X connect 2 0 3 0;
#X connect 5 0 4 0;
#X connect 5 0 9 0;
#X connect 6 0 4 1;
#X connect 9 0 8 0;
